<svg width="138" height="36" fill="none" xmlns="http://www.w3.org/2000/svg"><path fill-rule="evenodd" clip-rule="evenodd" d="M25.88 36H1.112v-6.034l8.813-8.908c1.565-1.564 2.868-2.94 3.918-4.132.99-1.124 1.694-2.17 2.154-3.135.425-.921.647-1.934.647-3.067 0-1.322-.376-1.999-.842-2.398l-.012-.01-.012-.01c-.592-.525-1.423-.862-2.678-.862-1.29 0-2.349.222-3.22.612-.975.452-2.015 1.096-3.118 1.957l-1.56 1.218L.696 5.577l1.465-1.256A19.624 19.624 0 015.15 2.215l.01-.007.012-.006A16.784 16.784 0 018.817.703L8.829.7A16.047 16.047 0 0113.1.144c2.19 0 4.187.375 5.925 1.208 1.729.829 3.113 2.047 4.089 3.65 1.024 1.604 1.49 3.468 1.49 5.502a12.79 12.79 0 01-.679 4.167l-.003.008-.002.008a16.4 16.4 0 01-1.851 3.658 28.532 28.532 0 01-2.744 3.456 88.825 88.825 0 01-3.376 3.466l-3.256 3.213H25.88V36zM7.996 30.48v-.176l6.556-6.468a86.889 86.889 0 003.3-3.388 26.528 26.528 0 002.552-3.212 14.404 14.404 0 001.628-3.212 10.81 10.81 0 00.572-3.52c0-1.73-.396-3.212-1.188-4.444-.763-1.261-1.848-2.23-3.256-2.904-1.408-.675-3.095-1.012-5.06-1.012-1.32 0-2.567.161-3.74.484a14.785 14.785 0 00-3.212 1.32 18.211 18.211 0 00-1.723 1.126c-.331.245-.651.5-.961.766l2.068 2.596c1.202-.939 2.376-1.672 3.52-2.2 1.173-.528 2.522-.792 4.048-.792 1.642 0 2.977.455 4.004 1.364 1.026.88 1.54 2.185 1.54 3.916 0 1.408-.279 2.713-.836 3.916-.558 1.173-1.379 2.376-2.464 3.608-1.086 1.232-2.42 2.64-4.004 4.224l-8.228 8.316V34H23.88v-3.52H7.996zm48.871-1.608h-4.576V36h-7.74v-7.128H29.503v-5.93L45.245.409h7.046v20.988h4.576v7.476zm-6.576-5.476V2.408h-4.004L31.503 23.572v3.3h15.048V34h3.74v-7.128h4.576v-3.476h-4.576zm-3.524-16.78l.004-.072h-.176a18.99 18.99 0 01-.88 1.804c-.243.446-.479.842-.708 1.19a9.704 9.704 0 01-.304.438l-9.416 13.42h11.264V11.428a293.876 293.876 0 01.088-1.804 32.951 32.951 0 00.044-1.584c.028-.501.056-.976.084-1.424zm-2.216 14.78v-7.721l-5.417 7.721h5.417zM94.796.584L81.602 36h-8.053L86.744.584h8.052zm-2.88 2h-3.783L76.429 34h3.784L91.917 2.584zM115.447 36l12.892-27.896h-15.812V.584h25.076v5.42L124.136 36h-8.69zm16.02-29.896L118.574 34h4.268l12.76-28.424V2.584h-21.076v3.52h16.94z" fill="#D0D0D0"/><path d="M1 28h25v8H1v-8zm28-7h28v8H29v-8zm83-21h26v8h-26V0z" fill="#50B6F3"/></svg>