<svg width="1071" height="561" fill="none" xmlns="http://www.w3.org/2000/svg"><g opacity=".33"><path d="M65.754 197.904L0 0h56.114l55.426 173.123H82.966L141.147 0h50.262l55.082 173.123h-26.853L276.784 0h52.328l-65.409 197.904h-58.18L157.671 49.218h15.147l-48.885 148.686h-58.18zm297.447 0V0h54.393v75.72h80.557V0h54.393v197.904h-54.393v-78.473h-80.557v78.473h-54.393zm242.394 0V0h54.393v197.904h-54.393zm144.089 0V42.334h-62.311V0h179.014v42.334h-62.311v155.57h-54.392zM942.579 77.785h95.701v39.581h-95.701V77.785zm5.508 78.473h105.683v41.646H894.383V0h155.607v41.646H948.087v114.612z" fill="#302E35"/><path d="M27.765 498.831V244.353H97.69v200.042h124.362v54.436H27.765z" fill="url(#paint0_linear_191_3)"/><path d="M321.815 344.374h123.034v50.896H321.815v-50.896zm7.081 100.906h135.869v53.551h-204.91V244.353h200.042v53.551H328.896V445.28z" fill="url(#paint1_linear_191_3)"/><path d="M477.655 498.831l114.183-254.478h69.041l114.626 254.478h-69.041l-91.612-220.843h23.456l-92.94 220.843h-67.713zm62.402-50.453l18.146-50.453h125.69l18.145 50.453H540.057z" fill="url(#paint2_linear_191_3)"/><path d="M805.721 498.831V244.353h119.937c29.209 0 54.583 5.163 76.122 15.49 21.83 10.327 38.65 25.079 50.45 44.257 12.1 18.883 18.15 41.454 18.15 67.713 0 25.964-6.05 48.536-18.15 67.714-11.8 18.883-28.62 33.487-50.45 43.814-21.539 10.327-46.913 15.49-76.122 15.49H805.721zm69.926-54.879h47.798c15.637 0 29.062-2.803 40.274-8.409 11.506-5.605 20.358-13.719 26.554-24.341 6.196-10.917 9.294-24.046 9.294-39.389 0-15.637-3.098-28.767-9.294-39.389-6.196-10.916-15.048-19.178-26.554-24.783-11.212-5.606-24.637-8.409-40.274-8.409h-47.798v144.72z" fill="url(#paint3_linear_191_3)"/><path fill-rule="evenodd" clip-rule="evenodd" d="M142.747 554.152c14.428 0 26.124-11.696 26.124-26.124 0-14.428-11.696-26.124-26.124-26.124-14.428 0-26.124 11.696-26.124 26.124 0 14.428 11.696 26.124 26.124 26.124zm0 6.147c17.823 0 32.271-14.448 32.271-32.271 0-17.822-14.448-32.271-32.271-32.271-17.822 0-32.27 14.449-32.27 32.271 0 17.823 14.448 32.271 32.27 32.271zm785.256-215.407L925 351.631a9.222 9.222 0 01-7.454 5.415l-7.337.774 5.481 4.939a9.22 9.22 0 012.847 8.762l-1.531 7.217 6.391-3.686a9.221 9.221 0 019.213 0l6.391 3.686-1.531-7.217a9.22 9.22 0 012.847-8.762l5.48-4.939-7.336-.774a9.222 9.222 0 01-7.454-5.415l-3.004-6.739zm2.808-8.8c-1.083-2.429-4.532-2.429-5.615 0l-5.811 13.036a3.071 3.071 0 01-2.484 1.805l-14.194 1.498c-2.645.279-3.71 3.559-1.735 5.34l10.603 9.554a3.076 3.076 0 01.949 2.921l-2.962 13.962c-.551 2.602 2.238 4.629 4.543 3.3l12.363-7.131a3.074 3.074 0 013.071 0l12.363 7.131c2.304 1.329 5.094-.698 4.542-3.3l-2.961-13.962a3.073 3.073 0 01.949-2.921l10.602-9.554c1.976-1.781.911-5.061-1.735-5.34l-14.193-1.498a3.074 3.074 0 01-2.485-1.805l-5.81-13.036z" fill="#302E35"/><path fill-rule="evenodd" clip-rule="evenodd" d="M228.001 392.075c-37.854 38.408-63.12 83.403-74.761 109.543l-5.615-2.5c11.854-26.62 37.494-72.291 75.999-111.358 38.506-39.069 90.152-71.796 153.928-71.796 79.714 0 133.906 50.133 184.952 99.206l4.211 4.051c49.851 47.975 97.094 93.441 163.265 93.441 55.128 0 93.262-12.307 121.353-31.173 28.121-18.886 46.463-44.533 61.696-71.751l5.363 3.002c-15.441 27.592-34.359 54.192-63.632 73.852-29.304 19.68-68.697 32.217-124.78 32.217-68.698 0-117.623-47.107-166.826-94.482a5473.276 5473.276 0 00-4.91-4.725c-51.256-49.276-103.771-97.492-180.692-97.492-61.531 0-111.698 31.559-149.551 69.965z" fill="#302E35"/><path d="M321.815 344.374H444.85v50.896H321.815v-50.896zm7.081 100.906h135.869v53.551h-204.91V244.353h200.042v53.551H328.896V445.28z" fill="url(#paint4_linear_191_3)"/><path d="M477.655 498.831l114.183-254.478h69.041l114.626 254.478h-69.041l-91.612-220.843h23.456l-92.94 220.843h-67.713zm62.403-50.453l18.145-50.453h125.69l18.145 50.453h-161.98z" fill="url(#paint5_linear_191_3)"/><path fill-rule="evenodd" clip-rule="evenodd" d="M915.567 405.792a3.073 3.073 0 013.952 1.808l6.064 16.294a3.073 3.073 0 11-5.761 2.144l-6.064-16.294a3.073 3.073 0 011.809-3.952z" fill="#302E35"/><path fill-rule="evenodd" clip-rule="evenodd" d="M919.518 407.6a3.074 3.074 0 00-3.953-1.808l-16.294 6.064a3.073 3.073 0 102.144 5.761l16.294-6.065a3.073 3.073 0 001.809-3.952zM129.815 515.099a3.073 3.073 0 014.347 0l21.514 21.513a3.075 3.075 0 01-4.347 4.347l-21.514-21.514a3.073 3.073 0 010-4.346z" fill="#302E35"/><path fill-rule="evenodd" clip-rule="evenodd" d="M155.675 515.099a3.073 3.073 0 00-4.347 0l-21.514 21.514a3.073 3.073 0 104.347 4.346l21.514-21.514c1.2-1.2 1.2-3.146 0-4.346z" fill="#302E35"/><path d="M159.65 366.675c0 25.461-20.64 46.101-46.101 46.101s-46.101-20.64-46.101-46.101 20.64-46.101 46.101-46.101 46.101 20.64 46.101 46.101z" fill="#343434"/><path d="M125.948 367.556c3.036-.546 5.399-2.413 6.211-6.472 1.117-5.544-2.971-8.757-8.666-11.047l2.266-7.473-4.534-1.376-2.209 7.276a189.313 189.313 0 00-3.634-1.051l2.221-7.323-4.53-1.375-2.268 7.471c-.988-.278-1.958-.552-2.899-.837l.006-.022-6.253-1.901-1.473 4.858s3.368.953 3.294.997c1.835.559 2.11 1.81 2.003 2.786l-2.582 8.513-3.628 11.958c-.257.554-.878 1.377-2.162.989.042.07-3.298-1.001-3.298-1.001l-2.548 5.158 5.9 1.791c1.098.334 2.173.679 3.23 1.009l-2.289 7.559 4.529 1.375 2.268-7.478c1.238.403 2.437.779 3.612 1.134l-2.259 7.443 4.534 1.376 2.291-7.544c7.755 1.873 13.675 1.566 16.518-5.415 2.289-5.619.36-9.023-3.651-11.378zm-12.081-14.763c2.558.776 10.848 2.399 9.223 7.76-1.561 5.138-9.418 2.098-11.978 1.321l2.755-9.081zm-7.186 23.678l3.04-10.012c3.072.931 12.978 2.969 11.192 8.861-1.713 5.65-11.157 2.082-14.232 1.151z" fill="#464646"/><path fill-rule="evenodd" clip-rule="evenodd" d="M688.106 337.688l-.003-.002a29.63 29.63 0 0129.511-49.835l1.531-4.597a34.478 34.478 0 00-40.555 15.145 34.475 34.475 0 006.221 42.842l3.295-3.553zm41.425-44.845l.002.002a29.63 29.63 0 01-30.673 49.881l-1.874 4.468a34.466 34.466 0 0023.89 1.027 34.472 34.472 0 0011.796-59.067l-3.141 3.689z" fill="#302E35"/><path fill-rule="evenodd" clip-rule="evenodd" d="M723.478 283.652a3.075 3.075 0 01-.531 4.314l-11.825 9.232a3.073 3.073 0 11-3.783-4.845l11.825-9.232a3.073 3.073 0 014.314.531z" fill="#302E35"/><path fill-rule="evenodd" clip-rule="evenodd" d="M722.947 287.967a3.073 3.073 0 00.531-4.314l-9.232-11.824a3.073 3.073 0 10-4.845 3.783l9.232 11.824a3.073 3.073 0 004.314.531zm-30.929 59.109a3.074 3.074 0 01.856-4.261l12.49-8.311a3.073 3.073 0 113.405 5.118l-12.489 8.311a3.074 3.074 0 01-4.262-.857z" fill="#302E35"/><path fill-rule="evenodd" clip-rule="evenodd" d="M692.875 342.814a3.074 3.074 0 00-.856 4.262l8.31 12.489a3.075 3.075 0 005.118-3.405l-8.311-12.49a3.073 3.073 0 00-4.261-.856z" fill="#302E35"/></g><defs><linearGradient id="paint0_linear_191_3" x1="81.537" y1="270.898" x2="924.421" y2="475.926" gradientUnits="userSpaceOnUse"><stop stop-color="#222126"/><stop offset="1" stop-color="#1D1C21"/></linearGradient><linearGradient id="paint1_linear_191_3" x1="81.537" y1="270.898" x2="924.421" y2="475.926" gradientUnits="userSpaceOnUse"><stop stop-color="#222126"/><stop offset="1" stop-color="#1D1C21"/></linearGradient><linearGradient id="paint2_linear_191_3" x1="81.537" y1="270.898" x2="924.421" y2="475.926" gradientUnits="userSpaceOnUse"><stop stop-color="#222126"/><stop offset="1" stop-color="#1D1C21"/></linearGradient><linearGradient id="paint3_linear_191_3" x1="81.537" y1="270.898" x2="924.421" y2="475.926" gradientUnits="userSpaceOnUse"><stop stop-color="#222126"/><stop offset="1" stop-color="#1D1C21"/></linearGradient><linearGradient id="paint4_linear_191_3" x1="81.537" y1="270.898" x2="924.421" y2="475.926" gradientUnits="userSpaceOnUse"><stop stop-color="#3F3E45"/><stop offset="1" stop-color="#1D1C21"/></linearGradient><linearGradient id="paint5_linear_191_3" x1="81.537" y1="270.898" x2="924.421" y2="475.926" gradientUnits="userSpaceOnUse"><stop stop-color="#3F3E45"/><stop offset="1" stop-color="#1D1C21"/></linearGradient></defs></svg>