<svg width="273" height="302" fill="none" xmlns="http://www.w3.org/2000/svg"><path d="M42 298.136l-19.09-19.091L2 299.955" stroke="url(#paint0_linear_207_21)" stroke-width="3"/><path d="M42 279.954l-19.09-19.09L2 281.773" stroke="url(#paint1_linear_207_21)" stroke-width="3"/><path d="M42 261.773l-19.09-19.091L2 263.591" stroke="url(#paint2_linear_207_21)" stroke-width="3"/><path d="M87 44.136L72.682 29.818 57 45.5" stroke="url(#paint3_linear_207_21)" stroke-width="3"/><path d="M87 30.5L72.682 16.182 57 31.864" stroke="url(#paint4_linear_207_21)" stroke-width="3"/><path d="M87 16.864L72.682 2.545 57 18.227" stroke="url(#paint5_linear_207_21)" stroke-width="3"/><path d="M271 137.659l-32.932-32.932L202 140.795" stroke="url(#paint6_linear_207_21)" stroke-width="3"/><path d="M271 106.296l-32.932-32.932L202 109.432" stroke="url(#paint7_linear_207_21)" stroke-width="3"/><path d="M271 74.932L238.068 42 202 78.068" stroke="url(#paint8_linear_207_21)" stroke-width="3"/><defs><linearGradient id="paint0_linear_207_21" x1="22" y1="299.955" x2="22" y2="279.045" gradientUnits="userSpaceOnUse"><stop stop-opacity="0"/><stop offset="1" stop-color="#fff"/></linearGradient><linearGradient id="paint1_linear_207_21" x1="22" y1="281.773" x2="22" y2="260.864" gradientUnits="userSpaceOnUse"><stop stop-opacity="0"/><stop offset="1" stop-color="#fff"/></linearGradient><linearGradient id="paint2_linear_207_21" x1="22" y1="263.591" x2="22" y2="242.682" gradientUnits="userSpaceOnUse"><stop stop-opacity="0"/><stop offset="1" stop-color="#fff"/></linearGradient><linearGradient id="paint3_linear_207_21" x1="72" y1="45.5" x2="72" y2="29.818" gradientUnits="userSpaceOnUse"><stop stop-opacity="0"/><stop offset="1" stop-color="#46A1ED"/></linearGradient><linearGradient id="paint4_linear_207_21" x1="72" y1="31.864" x2="72" y2="16.182" gradientUnits="userSpaceOnUse"><stop stop-opacity="0"/><stop offset="1" stop-color="#46A1ED"/></linearGradient><linearGradient id="paint5_linear_207_21" x1="72" y1="18.227" x2="72" y2="2.545" gradientUnits="userSpaceOnUse"><stop stop-opacity="0"/><stop offset="1" stop-color="#46A1ED"/></linearGradient><linearGradient id="paint6_linear_207_21" x1="236.5" y1="140.795" x2="236.5" y2="104.727" gradientUnits="userSpaceOnUse"><stop stop-opacity="0"/><stop offset="1" stop-color="#46A1ED"/></linearGradient><linearGradient id="paint7_linear_207_21" x1="236.5" y1="109.432" x2="236.5" y2="73.364" gradientUnits="userSpaceOnUse"><stop stop-opacity="0"/><stop offset="1" stop-color="#46A1ED"/></linearGradient><linearGradient id="paint8_linear_207_21" x1="236.5" y1="78.068" x2="236.5" y2="42" gradientUnits="userSpaceOnUse"><stop stop-opacity="0"/><stop offset="1" stop-color="#46A1ED"/></linearGradient></defs></svg>