<svg width="399" height="425" fill="none" xmlns="http://www.w3.org/2000/svg"><path d="M397 243.136l-14.318-14.318L367 244.5" stroke="url(#paint0_linear_205_29)" stroke-width="3"/><path d="M397 229.5l-14.318-14.318L367 230.864" stroke="url(#paint1_linear_205_29)" stroke-width="3"/><path d="M397 215.864l-14.318-14.319L367 217.227" stroke="url(#paint2_linear_205_29)" stroke-width="3"/><path d="M167 124.136l-14.318-14.318L137 125.5" stroke="url(#paint3_linear_205_29)" stroke-width="3"/><path d="M167 110.5l-14.318-14.318L137 111.864" stroke="url(#paint4_linear_205_29)" stroke-width="3"/><path d="M167 96.864l-14.318-14.319L137 98.228" stroke="url(#paint5_linear_205_29)" stroke-width="3"/><path d="M32 421.591l-14.318-14.318L2 422.955" stroke="url(#paint6_linear_205_29)" stroke-width="3"/><path d="M32 407.955l-14.318-14.319L2 409.318" stroke="url(#paint7_linear_205_29)" stroke-width="3"/><path d="M32 394.318L17.682 380 2 395.682" stroke="url(#paint8_linear_205_29)" stroke-width="3"/><path d="M122 378.136l-19.091-19.09L82 379.955" stroke="url(#paint9_linear_205_29)" stroke-width="3"/><path d="M122 359.954l-19.091-19.09L82 361.773" stroke="url(#paint10_linear_205_29)" stroke-width="3"/><path d="M122 341.773l-19.091-19.091L82 343.591" stroke="url(#paint11_linear_205_29)" stroke-width="3"/><path d="M351 217.659l-32.932-32.932L282 220.796" stroke="url(#paint12_linear_205_29)" stroke-width="3"/><path d="M351 186.296l-32.932-32.932L282 189.432" stroke="url(#paint13_linear_205_29)" stroke-width="3"/><path d="M351 154.932L318.068 122 282 158.068" stroke="url(#paint14_linear_205_29)" stroke-width="3"/><path d="M121 98.66L88.068 65.726 52 101.795" stroke="url(#paint15_linear_205_29)" stroke-width="3"/><path d="M121 67.296L88.068 34.364 52 70.432" stroke="url(#paint16_linear_205_29)" stroke-width="3"/><path d="M121 35.932L88.068 3 52 39.068" stroke="url(#paint17_linear_205_29)" stroke-width="3"/><defs><linearGradient id="paint0_linear_205_29" x1="382" y1="244.5" x2="382" y2="228.818" gradientUnits="userSpaceOnUse"><stop stop-opacity="0"/><stop offset="1" stop-color="#46A1ED"/></linearGradient><linearGradient id="paint1_linear_205_29" x1="382" y1="230.864" x2="382" y2="215.182" gradientUnits="userSpaceOnUse"><stop stop-opacity="0"/><stop offset="1" stop-color="#46A1ED"/></linearGradient><linearGradient id="paint2_linear_205_29" x1="382" y1="217.227" x2="382" y2="201.545" gradientUnits="userSpaceOnUse"><stop stop-opacity="0"/><stop offset="1" stop-color="#46A1ED"/></linearGradient><linearGradient id="paint3_linear_205_29" x1="152" y1="125.5" x2="152" y2="109.818" gradientUnits="userSpaceOnUse"><stop stop-opacity="0"/><stop offset="1" stop-color="#46A1ED"/></linearGradient><linearGradient id="paint4_linear_205_29" x1="152" y1="111.864" x2="152" y2="96.182" gradientUnits="userSpaceOnUse"><stop stop-opacity="0"/><stop offset="1" stop-color="#46A1ED"/></linearGradient><linearGradient id="paint5_linear_205_29" x1="152" y1="98.227" x2="152" y2="82.546" gradientUnits="userSpaceOnUse"><stop stop-opacity="0"/><stop offset="1" stop-color="#46A1ED"/></linearGradient><linearGradient id="paint6_linear_205_29" x1="17" y1="422.955" x2="17" y2="407.273" gradientUnits="userSpaceOnUse"><stop stop-opacity="0"/><stop offset="1" stop-color="#46A1ED"/></linearGradient><linearGradient id="paint7_linear_205_29" x1="17" y1="409.318" x2="17" y2="393.636" gradientUnits="userSpaceOnUse"><stop stop-opacity="0"/><stop offset="1" stop-color="#46A1ED"/></linearGradient><linearGradient id="paint8_linear_205_29" x1="17" y1="395.682" x2="17" y2="380" gradientUnits="userSpaceOnUse"><stop stop-opacity="0"/><stop offset="1" stop-color="#46A1ED"/></linearGradient><linearGradient id="paint9_linear_205_29" x1="102" y1="379.955" x2="102" y2="359.046" gradientUnits="userSpaceOnUse"><stop stop-opacity="0"/><stop offset="1" stop-color="#fff"/></linearGradient><linearGradient id="paint10_linear_205_29" x1="102" y1="361.773" x2="102" y2="340.864" gradientUnits="userSpaceOnUse"><stop stop-opacity="0"/><stop offset="1" stop-color="#fff"/></linearGradient><linearGradient id="paint11_linear_205_29" x1="102" y1="343.591" x2="102" y2="322.682" gradientUnits="userSpaceOnUse"><stop stop-opacity="0"/><stop offset="1" stop-color="#fff"/></linearGradient><linearGradient id="paint12_linear_205_29" x1="316.5" y1="220.796" x2="316.5" y2="184.728" gradientUnits="userSpaceOnUse"><stop stop-opacity="0"/><stop offset="1" stop-color="#46A1ED"/></linearGradient><linearGradient id="paint13_linear_205_29" x1="316.5" y1="189.432" x2="316.5" y2="153.364" gradientUnits="userSpaceOnUse"><stop stop-opacity="0"/><stop offset="1" stop-color="#46A1ED"/></linearGradient><linearGradient id="paint14_linear_205_29" x1="316.5" y1="158.068" x2="316.5" y2="122" gradientUnits="userSpaceOnUse"><stop stop-opacity="0"/><stop offset="1" stop-color="#46A1ED"/></linearGradient><linearGradient id="paint15_linear_205_29" x1="86.5" y1="101.795" x2="86.5" y2="65.727" gradientUnits="userSpaceOnUse"><stop stop-opacity="0"/><stop offset="1" stop-color="#46A1ED"/></linearGradient><linearGradient id="paint16_linear_205_29" x1="86.5" y1="70.432" x2="86.5" y2="34.364" gradientUnits="userSpaceOnUse"><stop stop-opacity="0"/><stop offset="1" stop-color="#46A1ED"/></linearGradient><linearGradient id="paint17_linear_205_29" x1="86.5" y1="39.068" x2="86.5" y2="3" gradientUnits="userSpaceOnUse"><stop stop-opacity="0"/><stop offset="1" stop-color="#46A1ED"/></linearGradient></defs></svg>