<svg width="149" height="425" fill="none" xmlns="http://www.w3.org/2000/svg"><path d="M147 124.136l-14.318-14.318L117 125.5" stroke="url(#paint0_linear_212_7)" stroke-width="3"/><path d="M147 110.5l-14.318-14.318L117 111.864" stroke="url(#paint1_linear_212_7)" stroke-width="3"/><path d="M147 96.864l-14.318-14.319L117 98.227" stroke="url(#paint2_linear_212_7)" stroke-width="3"/><path d="M32 421.591l-14.318-14.318L2 422.954" stroke="url(#paint3_linear_212_7)" stroke-width="3"/><path d="M32 407.954l-14.318-14.318L2 409.318" stroke="url(#paint4_linear_212_7)" stroke-width="3"/><path d="M32 394.318L17.682 380 2 395.682" stroke="url(#paint5_linear_212_7)" stroke-width="3"/><path d="M122 378.136l-19.091-19.091L82 379.955" stroke="url(#paint6_linear_212_7)" stroke-width="3"/><path d="M122 359.954l-19.091-19.091L82 361.773" stroke="url(#paint7_linear_212_7)" stroke-width="3"/><path d="M122 341.773l-19.091-19.091L82 343.591" stroke="url(#paint8_linear_212_7)" stroke-width="3"/><path d="M101 98.659L68.068 65.727 32 101.795" stroke="url(#paint9_linear_212_7)" stroke-width="3"/><path d="M101 67.296L68.068 34.364 32 70.432" stroke="url(#paint10_linear_212_7)" stroke-width="3"/><path d="M101 35.932L68.068 3 32 39.068" stroke="url(#paint11_linear_212_7)" stroke-width="3"/><defs><linearGradient id="paint0_linear_212_7" x1="132" y1="125.5" x2="132" y2="109.818" gradientUnits="userSpaceOnUse"><stop stop-opacity="0"/><stop offset="1" stop-color="#98C33E"/></linearGradient><linearGradient id="paint1_linear_212_7" x1="132" y1="111.864" x2="132" y2="96.182" gradientUnits="userSpaceOnUse"><stop stop-opacity="0"/><stop offset="1" stop-color="#98C33E"/></linearGradient><linearGradient id="paint2_linear_212_7" x1="132" y1="98.227" x2="132" y2="82.545" gradientUnits="userSpaceOnUse"><stop stop-opacity="0"/><stop offset="1" stop-color="#98C33E"/></linearGradient><linearGradient id="paint3_linear_212_7" x1="17" y1="422.954" x2="17" y2="407.273" gradientUnits="userSpaceOnUse"><stop stop-opacity="0"/><stop offset="1" stop-color="#98C33E"/></linearGradient><linearGradient id="paint4_linear_212_7" x1="17" y1="409.318" x2="17" y2="393.636" gradientUnits="userSpaceOnUse"><stop stop-opacity="0"/><stop offset="1" stop-color="#98C33E"/></linearGradient><linearGradient id="paint5_linear_212_7" x1="17" y1="395.682" x2="17" y2="380" gradientUnits="userSpaceOnUse"><stop stop-opacity="0"/><stop offset="1" stop-color="#98C33E"/></linearGradient><linearGradient id="paint6_linear_212_7" x1="102" y1="379.955" x2="102" y2="359.045" gradientUnits="userSpaceOnUse"><stop stop-opacity="0"/><stop offset="1" stop-color="#fff"/></linearGradient><linearGradient id="paint7_linear_212_7" x1="102" y1="361.773" x2="102" y2="340.863" gradientUnits="userSpaceOnUse"><stop stop-opacity="0"/><stop offset="1" stop-color="#fff"/></linearGradient><linearGradient id="paint8_linear_212_7" x1="102" y1="343.591" x2="102" y2="322.682" gradientUnits="userSpaceOnUse"><stop stop-opacity="0"/><stop offset="1" stop-color="#fff"/></linearGradient><linearGradient id="paint9_linear_212_7" x1="66.5" y1="101.795" x2="66.5" y2="65.727" gradientUnits="userSpaceOnUse"><stop stop-opacity="0"/><stop offset="1" stop-color="#98C33E"/></linearGradient><linearGradient id="paint10_linear_212_7" x1="66.5" y1="70.432" x2="66.5" y2="34.364" gradientUnits="userSpaceOnUse"><stop stop-opacity="0"/><stop offset="1" stop-color="#98C33E"/></linearGradient><linearGradient id="paint11_linear_212_7" x1="66.5" y1="39.068" x2="66.5" y2="3" gradientUnits="userSpaceOnUse"><stop stop-opacity="0"/><stop offset="1" stop-color="#98C33E"/></linearGradient></defs></svg>