<svg width="119" height="127" fill="none" xmlns="http://www.w3.org/2000/svg"><path d="M117 124.136l-14.318-14.318L87 125.5" stroke="url(#paint0_linear_212_8)" stroke-width="3"/><path d="M117 110.5l-14.318-14.318L87 111.864" stroke="url(#paint1_linear_212_8)" stroke-width="3"/><path d="M117 96.864l-14.318-14.319L87 98.227" stroke="url(#paint2_linear_212_8)" stroke-width="3"/><path d="M71 98.659L38.068 65.727 2 101.795" stroke="url(#paint3_linear_212_8)" stroke-width="3"/><path d="M71 67.296L38.068 34.364 2 70.432" stroke="url(#paint4_linear_212_8)" stroke-width="3"/><path d="M71 35.932L38.068 3 2 39.068" stroke="url(#paint5_linear_212_8)" stroke-width="3"/><defs><linearGradient id="paint0_linear_212_8" x1="102" y1="125.5" x2="102" y2="109.818" gradientUnits="userSpaceOnUse"><stop stop-opacity="0"/><stop offset="1" stop-color="#98C33E"/></linearGradient><linearGradient id="paint1_linear_212_8" x1="102" y1="111.864" x2="102" y2="96.182" gradientUnits="userSpaceOnUse"><stop stop-opacity="0"/><stop offset="1" stop-color="#98C33E"/></linearGradient><linearGradient id="paint2_linear_212_8" x1="102" y1="98.227" x2="102" y2="82.545" gradientUnits="userSpaceOnUse"><stop stop-opacity="0"/><stop offset="1" stop-color="#98C33E"/></linearGradient><linearGradient id="paint3_linear_212_8" x1="36.5" y1="101.795" x2="36.5" y2="65.727" gradientUnits="userSpaceOnUse"><stop stop-opacity="0"/><stop offset="1" stop-color="#98C33E"/></linearGradient><linearGradient id="paint4_linear_212_8" x1="36.5" y1="70.432" x2="36.5" y2="34.364" gradientUnits="userSpaceOnUse"><stop stop-opacity="0"/><stop offset="1" stop-color="#98C33E"/></linearGradient><linearGradient id="paint5_linear_212_8" x1="36.5" y1="39.068" x2="36.5" y2="3" gradientUnits="userSpaceOnUse"><stop stop-opacity="0"/><stop offset="1" stop-color="#98C33E"/></linearGradient></defs></svg>