<svg width="138" height="44" fill="none" xmlns="http://www.w3.org/2000/svg"><path d="M8.82 43h-2v2h2v-2zm0-38.4l1.414-1.414L6.82-.228V4.6h2zm4.2 4.2v2h4.828l-3.414-3.414L13.02 8.8zm-12.6 0h-2v2h2v-2zm0-7.8v-2h-2v2h2zm18.12 0h2v-2h-2v2zm0 42v2h2v-2h-2zm-7.72 0V4.6h-4V43h4zM7.406 6.014l4.2 4.2 2.828-2.828-4.2-4.2-2.828 2.828zm5.614.786H.42v4h12.6v-4zm-10.6 2V1h-4v7.8h4zM.42 3h18.12v-4H.42v4zm16.12-2v42h4V1h-4zm2 40H8.82v4h9.72v-4zm16.056.2l-1.069 1.69.01.006.008.006 1.051-1.702zm-6.42-7.44l-1.802.868 1.802-.868zm0-23.52l1.802.868-1.802-.868zm6.42-7.38l1.051 1.702.01-.006.008-.006-1.069-1.69zm18.48 0l-1.08 1.683.014.01.015.009 1.051-1.702zm6.42 7.38l-1.802.868 1.802-.868zm0 23.52l-1.802-.868 1.802.868zm-6.42 7.44l1.062 1.695.007-.005-1.069-1.69zm-4.98-7.08l-1.192-1.606-.012.01-.013.009 1.217 1.587zm2.88-4.38l-1.882-.677-.006.016-.005.017 1.893.644zm0-15.48l-1.893.644.005.017.006.016 1.882-.677zm-2.88-4.38l-1.217 1.587.013.01.012.01 1.192-1.607zm-8.52 0l-1.192-1.606-.012.01-.013.009 1.217 1.587zm-2.88 4.38l-1.882-.677-.006.016-.005.017 1.893.644zm0 15.48l-1.893.644.005.017.006.016 1.882-.677zm2.88 4.38l-1.217 1.587.013.01.012.01 1.192-1.607zm4.26 7.6c-3.098 0-5.809-.752-8.189-2.222l-2.102 3.404c3.06 1.89 6.51 2.818 10.291 2.818v-4zm-8.171-2.21c-2.367-1.497-4.27-3.674-5.687-6.618l-3.604 1.736c1.703 3.536 4.08 6.32 7.153 8.262l2.138-3.38zm-5.687-6.618C28.58 29.988 27.836 26.381 27.836 22h-4c0 4.82.817 9.052 2.538 12.628l3.604-1.736zM27.836 22c0-4.38.744-7.988 2.142-10.892l-3.604-1.736c-1.721 3.576-2.538 7.809-2.538 12.628h4zm2.142-10.892c1.416-2.94 3.313-5.091 5.67-6.546l-2.103-3.404c-3.084 1.905-5.467 4.675-7.17 8.214l3.603 1.736zm5.687-6.558c2.378-1.503 5.082-2.27 8.171-2.27v-4c-3.791 0-7.247.953-10.309 2.89l2.138 3.38zm8.171-2.27c3.134 0 5.832.77 8.16 2.263l2.16-3.366C51.124-.77 47.662-1.72 43.836-1.72v4zm8.19 2.282c2.355 1.455 4.252 3.605 5.668 6.546l3.604-1.736c-1.704-3.54-4.087-6.309-7.17-8.214l-2.103 3.404zm5.668 6.546c1.399 2.904 2.142 6.511 2.142 10.892h4c0-4.82-.816-9.052-2.538-12.628l-3.604 1.736zM59.836 22c0 4.38-.743 7.988-2.142 10.892l3.604 1.736c1.722-3.576 2.538-7.809 2.538-12.628h-4zm-2.142 10.892c-1.417 2.944-3.32 5.12-5.687 6.618l2.138 3.38c3.073-1.943 5.45-4.726 7.153-8.262l-3.604-1.736zm-5.68 6.613c-2.33 1.461-5.035 2.215-8.178 2.215v4c3.817 0 7.273-.926 10.302-2.825l-2.124-3.39zM43.836 37.5c2.04 0 3.898-.582 5.477-1.793l-2.434-3.174c-.82.629-1.803.967-3.043.967v4zm5.452-1.774c1.666-1.236 2.818-3.096 3.582-5.342l-3.787-1.288c-.597 1.754-1.365 2.814-2.179 3.418l2.384 3.212zm3.57-5.309c.826-2.295 1.198-5.128 1.198-8.417h-4c0 3.03-.348 5.358-.962 7.063l3.764 1.354zM54.056 22c0-3.29-.372-6.122-1.198-8.417l-3.764 1.354c.614 1.705.962 4.033.962 7.063h4zm-1.186-8.384c-.764-2.246-1.916-4.106-3.582-5.342l-2.384 3.212c.814.604 1.582 1.664 2.179 3.418l3.787-1.288zm-3.557-5.323C47.733 7.082 45.876 6.5 43.836 6.5v4c1.24 0 2.223.338 3.043.967l2.434-3.174zM43.836 6.5c-2.012 0-3.854.588-5.452 1.774l2.384 3.212c.882-.654 1.88-.986 3.068-.986v-4zM38.36 8.293c-1.604 1.23-2.745 3.07-3.545 5.29l3.764 1.354c.64-1.78 1.42-2.86 2.215-3.47L38.36 8.293zm-3.556 5.323C34.026 15.9 33.675 18.72 33.675 22h4c0-3.039.33-5.38.914-7.096l-3.788-1.288zM33.675 22c0 3.281.35 6.1 1.127 8.384l3.787-1.288c-.584-1.717-.914-4.057-.914-7.096h-4zm1.138 8.417c.8 2.22 1.941 4.06 3.545 5.29l2.434-3.174c-.796-.61-1.575-1.69-2.215-3.47l-3.764 1.354zm3.57 5.31c1.598 1.185 3.44 1.773 5.452 1.773v-4c-1.187 0-2.186-.332-3.068-.986l-2.384 3.212zM75.32 41.2l-1.07 1.69.01.006.009.006 1.05-1.702zm-6.42-7.44l-1.802.868 1.802-.868zm0-23.52l1.802.868-1.802-.868zm6.42-7.38l1.05 1.702.01-.006.009-.006-1.07-1.69zm18.48 0l-1.08 1.683.014.01.015.009 1.05-1.702zm6.42 7.38l-1.802.868 1.802-.868zm0 23.52l-1.802-.868 1.802.868zM93.8 41.2l1.062 1.695.007-.005-1.07-1.69zm-4.98-7.08l-1.192-1.606-.013.01-.012.009 1.217 1.587zm2.88-4.38l-1.882-.677-.006.016-.006.017 1.894.644zm0-15.48l-1.894.644.006.017.006.016 1.882-.677zm-2.88-4.38l-1.217 1.587.012.01.013.01L88.82 9.88zm-8.52 0l-1.192-1.606-.013.01-.012.009L80.3 9.88zm-2.88 4.38l-1.882-.677-.006.016-.006.017 1.894.644zm0 15.48l-1.894.644.006.017.006.016 1.882-.677zm2.88 4.38l-1.217 1.587.012.01.013.01L80.3 34.12zm4.26 7.6c-3.098 0-5.81-.752-8.19-2.222l-2.101 3.404c3.06 1.89 6.509 2.818 10.29 2.818v-4zm-8.171-2.21c-2.368-1.497-4.27-3.674-5.687-6.618l-3.604 1.736c1.703 3.536 4.08 6.32 7.153 8.262l2.138-3.38zM70.7 32.892c-1.399-2.904-2.142-6.511-2.142-10.892h-4c0 4.82.816 9.052 2.538 12.628l3.604-1.736zM68.559 22c0-4.38.743-7.988 2.142-10.892l-3.604-1.736c-1.722 3.576-2.538 7.809-2.538 12.628h4zM70.7 11.108c1.415-2.94 3.313-5.091 5.669-6.546l-2.102-3.404c-3.084 1.905-5.467 4.675-7.171 8.214l3.604 1.736zm5.687-6.558c2.378-1.503 5.082-2.27 8.17-2.27v-4c-3.79 0-7.246.953-10.308 2.89l2.138 3.38zm8.17-2.27c3.135 0 5.833.77 8.16 2.263l2.161-3.366C91.847-.77 88.385-1.72 84.559-1.72v4zm8.19 2.282c2.356 1.455 4.253 3.605 5.669 6.546l3.604-1.736c-1.705-3.54-4.087-6.309-7.171-8.214l-2.102 3.404zm5.669 6.546c1.398 2.904 2.142 6.511 2.142 10.892h4c0-4.82-.817-9.052-2.538-12.628l-3.604 1.736zM100.559 22c0 4.38-.744 7.988-2.142 10.892l3.604 1.736c1.721-3.576 2.538-7.809 2.538-12.628h-4zm-2.142 10.892c-1.417 2.944-3.32 5.12-5.687 6.618l2.138 3.38c3.073-1.943 5.45-4.726 7.153-8.262l-3.604-1.736zm-5.68 6.613c-2.33 1.461-5.035 2.215-8.178 2.215v4c3.817 0 7.272-.926 10.302-2.825l-2.124-3.39zM84.559 37.5c2.04 0 3.897-.582 5.477-1.793l-2.434-3.174c-.82.629-1.804.967-3.043.967v4zm5.451-1.774c1.667-1.236 2.819-3.096 3.582-5.342l-3.787-1.288c-.596 1.754-1.364 2.814-2.178 3.418l2.383 3.212zm3.57-5.309c.827-2.295 1.199-5.128 1.199-8.417h-4c0 3.03-.349 5.358-.962 7.063l3.764 1.354zM94.78 22c0-3.29-.372-6.122-1.198-8.417l-3.764 1.354c.614 1.705.962 4.033.962 7.063h4zm-1.187-8.384c-.763-2.246-1.915-4.106-3.582-5.342l-2.383 3.212c.814.604 1.582 1.664 2.178 3.418l3.787-1.288zm-3.556-5.323C88.456 7.082 86.599 6.5 84.559 6.5v4c1.24 0 2.222.338 3.043.967l2.434-3.174zM84.559 6.5c-2.013 0-3.854.588-5.452 1.774l2.383 3.212c.883-.654 1.881-.986 3.069-.986v-4zm-5.477 1.793c-1.604 1.23-2.746 3.07-3.545 5.29l3.763 1.354c.641-1.78 1.42-2.86 2.216-3.47l-2.434-3.174zm-3.557 5.323C74.75 15.9 74.4 18.72 74.4 22h4c0-3.039.33-5.38.913-7.096l-3.787-1.288zM74.4 22c0 3.281.35 6.1 1.126 8.384l3.787-1.288C78.728 27.38 78.4 25.04 78.4 22h-4zm1.138 8.417c.8 2.22 1.94 4.06 3.545 5.29l2.434-3.174c-.796-.61-1.575-1.69-2.216-3.47l-3.763 1.354zm3.57 5.31c1.598 1.185 3.44 1.773 5.452 1.773v-4c-1.188 0-2.186-.332-3.069-.986l-2.383 3.212zm40.11.133h-2v2h2v-2zm0-27.72v-2h-2v2h2zm7.74 0h2v-2h-2v2zm0 27.72v2h2v-2h-2zm-18.12-10.2h-2v2h2v-2zm0-7.32v-2h-2v2h2zm28.56 0h2v-2h-2v2zm0 7.32v2h2v-2h-2zm-16.18 10.2V8.14h-4v27.72h4zm-2-25.72h7.74v-4h-7.74v4zm5.74-2v27.72h4V8.14h-4zm2 25.72h-7.74v4h7.74v-4zm-16.12-8.2v-7.32h-4v7.32h4zm-2-5.32h28.56v-4h-28.56v4zm26.56-2v7.32h4v-7.32h-4zm2 5.32h-28.56v4h28.56v-4z" fill="#D0D0D0"/></svg>