<svg width="74" height="74" fill="none" xmlns="http://www.w3.org/2000/svg"><circle cx="21" cy="53" r="19" fill="#50B6F3"/><path d="M35.512 5.316a7.518 7.518 0 1110.632 10.632l-1.276 1.276A7.518 7.518 0 0134.236 6.592l1.276-1.276zm22.539 22.54a7.518 7.518 0 0110.632 10.632l-1.276 1.276a7.518 7.518 0 01-10.632-10.632l1.276-1.276z" fill="#50B6F3"/><g filter="url(#filter0_b_133_304)" fill="#fff" fill-opacity=".22"><path d="M22.752 18.075a7.518 7.518 0 0110.633 10.632l-6.167 6.167L16.586 24.24l6.166-6.166zm22.54 22.54a7.518 7.518 0 0110.633 10.632l-6.167 6.167-10.632-10.632 6.166-6.167z"/><path d="M27.218 46.782a8.42 8.42 0 0011.908 0l10.632 10.632A23.455 23.455 0 019.715 40.828a23.457 23.457 0 016.87-16.587l10.633 10.633a8.42 8.42 0 000 11.908z"/></g><defs><filter id="filter0_b_133_304" x="-5.285" y=".873" width="78.412" height="78.411" filterUnits="userSpaceOnUse" color-interpolation-filters="sRGB"><feFlood flood-opacity="0" result="BackgroundImageFix"/><feGaussianBlur in="BackgroundImageFix" stdDeviation="7.5"/><feComposite in2="SourceAlpha" operator="in" result="effect1_backgroundBlur_133_304"/><feBlend in="SourceGraphic" in2="effect1_backgroundBlur_133_304" result="shape"/></filter></defs></svg>