<svg width="53" height="75" fill="none" xmlns="http://www.w3.org/2000/svg"><ellipse cx="26.5" cy="57.5" rx="26.5" ry="17.5" fill="#50B6F3"/><g filter="url(#filter0_b_138_514)"><path d="M26.5 0C12.99 0 2 10.99 2 24.5c0 3.757.829 7.363 2.476 10.741 2.266 4.547 8.897 15.76 15.918 27.629l3.42 5.784a3.12 3.12 0 005.372 0l3.417-5.781c6.974-11.788 13.563-22.928 15.873-27.536.02-.04.043-.08.062-.121A24.278 24.278 0 0051 24.5C51 10.99 40.01 0 26.5 0zm0 33.386c-5.375 0-9.748-4.373-9.748-9.749 0-5.375 4.373-9.748 9.748-9.748 5.375 0 9.748 4.374 9.748 9.748 0 5.375-4.373 9.749-9.748 9.749z" fill="#fff" fill-opacity=".22"/></g><circle cx="26.5" cy="23.5" r="10.5" fill="#D9D9D9"/><defs><filter id="filter0_b_138_514" x="-13" y="-15" width="79" height="100.187" filterUnits="userSpaceOnUse" color-interpolation-filters="sRGB"><feFlood flood-opacity="0" result="BackgroundImageFix"/><feGaussianBlur in="BackgroundImageFix" stdDeviation="7.5"/><feComposite in2="SourceAlpha" operator="in" result="effect1_backgroundBlur_138_514"/><feBlend in="SourceGraphic" in2="effect1_backgroundBlur_138_514" result="shape"/></filter></defs></svg>