<svg width="65" height="68" fill="none" xmlns="http://www.w3.org/2000/svg"><path d="M20.5 40C31.822 40 41 31.046 41 20S31.822 0 20.5 0 0 8.954 0 20s9.178 20 20.5 20z" fill="#50B6F3"/><g filter="url(#filter0_b_138_519)"><path d="M35.5 68C51.792 68 65 54.792 65 38.5S51.792 9 35.5 9 6 22.208 6 38.5 19.208 68 35.5 68z" fill="#fff" fill-opacity=".22"/></g><path d="M47.98 32.95a3.142 3.142 0 00-.034-.344c-.017-.097-.044-.19-.07-.286a3.17 3.17 0 00-.093-.303c-.038-.098-.084-.189-.13-.282-.045-.09-.088-.178-.142-.263-.06-.096-.132-.185-.202-.274-.043-.053-.074-.113-.12-.165-.017-.019-.038-.031-.055-.05-.08-.084-.17-.158-.258-.233-.07-.059-.136-.122-.209-.174-.088-.063-.183-.112-.278-.165-.083-.047-.163-.098-.25-.137-.095-.042-.195-.07-.294-.104-.094-.03-.185-.066-.282-.088-.093-.021-.192-.03-.289-.042-.108-.014-.216-.03-.325-.033-.026 0-.051-.007-.077-.007h-11.59a3.14 3.14 0 00-3.13 3.15 3.14 3.14 0 003.13 3.15h3.48L24.273 47.71l-3.877-4.522a3.126 3.126 0 00-2.179-1.087 3.122 3.122 0 00-2.295.812L1.027 56.518a3.165 3.165 0 00-.215 4.45 3.115 3.115 0 004.422.215L17.753 49.75l3.877 4.521a3.12 3.12 0 004.474.276l15.635-14.281v3.823a3.14 3.14 0 003.13 3.15A3.14 3.14 0 0048 44.089V33.15c0-.069-.016-.133-.02-.201z" fill="#D9D9D9"/><defs><filter id="filter0_b_138_519" x="-9" y="-6" width="89" height="89" filterUnits="userSpaceOnUse" color-interpolation-filters="sRGB"><feFlood flood-opacity="0" result="BackgroundImageFix"/><feGaussianBlur in="BackgroundImageFix" stdDeviation="7.5"/><feComposite in2="SourceAlpha" operator="in" result="effect1_backgroundBlur_138_519"/><feBlend in="SourceGraphic" in2="effect1_backgroundBlur_138_519" result="shape"/></filter></defs></svg>