<svg width="175" height="58" fill="none" xmlns="http://www.w3.org/2000/svg"><path d="M15.62 57.2h-2v2h2v-2zm0-56.4v-2h-2v2h2zm6 0h2v-2h-2v2zm0 56.4v2h2v-2h-2zm-13.5-7.8l-.572 1.916.011.004.012.003.549-1.923zM.68 45.86l-1.823-.822-.652 1.446 1.259.964L.68 45.86zm3.3-7.32l1.16-1.63-1.983-1.41-1 2.218 1.823.822zm6.36 3.18l-.651 1.891.018.006.019.006.614-1.903zm12.12.66l.593 1.91.02-.006.02-.007-.633-1.897zm2.64-1.62l-1.544-1.271L25.1 40.76zm-.48-4.98l-1.223 1.583.023.017.024.017 1.176-1.617zm-3.48-1.62l-.584 1.913.024.007.025.007.535-1.927zm-4.8-1.2l-.453 1.948.026.006.026.005.401-1.959zm-5.22-1.44l-.62 1.902.014.004.606-1.906zm-4.74-2.16l-1.043 1.707L6.38 29.36zm-3.54-3.48l-1.707 1.043.01.017.012.017L2.84 25.88zm.6-12.06l-1.67-1.102-.005.008L3.44 13.82zm5.88-4.74l.815 1.826.013-.005L9.32 9.08zm17.7-.84l-.485 1.94.014.004.015.003.456-1.947zM33.8 11l1.853.753.63-1.55-1.414-.893L33.8 11zm-3 7.38l-.992 1.736 1.984 1.134.86-2.117-1.852-.753zm-5.88-2.46l-.55 1.923.019.005.018.005.513-1.933zm-10.38-.18l-.688-1.878.688 1.878zm-2.58 1.74l1.589 1.215.016-.022.016-.022-1.621-1.171zm.54 5.04l-1.223 1.583.023.017.024.017L12.5 22.52zm3.48 1.56l-.535 1.927.535-1.927zm4.74 1.2l-.453 1.948.01.002.443-1.95zm5.22 1.38l-.579 1.915.012.003.567-1.918zm4.8 2.1l1.043-1.707-1.043 1.707zm3.48 3.48l-1.707 1.043.01.017.012.017 1.685-1.077zm-.6 11.94l1.659 1.117-1.659-1.117zm-5.94 4.74l-.828-1.82-.01.004.838 1.816zM17.62 57.2V.8h-4v56.4h4zm-2-54.4h6v-4h-6v4zm4-2v56.4h4V.8h-4zm2 54.4h-6v4h6v-4zm-3.84-6.48c-3.183 0-6.218-.416-9.11-1.243l-1.1 3.846c3.268.934 6.673 1.397 10.21 1.397v-4zm-9.088-1.236c-2.925-.874-5.164-1.962-6.796-3.212l-2.432 3.176c2.128 1.63 4.849 2.902 8.084 3.868l1.144-3.832zm-6.189-.802l3.3-7.32-3.646-1.644-3.3 7.32 3.646 1.644zm.318-6.512c1.98 1.408 4.277 2.549 6.868 3.441l1.302-3.782c-2.289-.788-4.232-1.767-5.852-2.919l-2.318 3.26zm6.905 3.453a26.297 26.297 0 008.114 1.297v-4c-2.304 0-4.598-.365-6.886-1.103l-1.228 3.806zm8.114 1.297c2.019 0 3.783-.186 5.213-.63l-1.186-3.82c-.89.276-2.206.45-4.027.45v4zm5.253-.643c1.409-.47 2.67-1.175 3.55-2.246l-3.087-2.542c-.238.29-.738.663-1.729.994l1.265 3.794zm3.55-2.246a5.576 5.576 0 001.297-3.611h-4c0 .416-.118.746-.384 1.069l3.088 2.542zm1.297-3.611c0-1.738-.729-3.228-2.144-4.258l-2.352 3.236c.345.25.496.52.496 1.022h4zm-2.097-4.223c-1.142-.882-2.56-1.517-4.168-1.964l-1.07 3.854c1.271.353 2.174.798 2.792 1.276l2.446-3.166zm-4.119-1.95a54.466 54.466 0 00-4.983-1.246l-.802 3.918c1.71.35 3.247.735 4.617 1.154l1.168-3.826zm-4.931-1.235a66.093 66.093 0 01-5.067-1.398l-1.212 3.812a69.944 69.944 0 005.373 1.482l.906-3.896zm-5.054-1.394a20.278 20.278 0 01-4.316-1.965l-2.086 3.414a24.274 24.274 0 005.164 2.355l1.238-3.804zm-4.316-1.965a8.895 8.895 0 01-2.898-2.85l-3.37 2.154a12.897 12.897 0 004.182 4.11l2.086-3.414zm-2.876-2.816C3.912 23.798 3.52 22.35 3.52 20.36h-4c0 2.49.488 4.722 1.613 6.563l3.414-2.086zM3.52 20.36c0-2.022.533-3.82 1.595-5.446l-3.35-2.188C.267 15.02-.48 17.582-.48 20.36h4zm1.59-5.438c1.073-1.627 2.707-2.981 5.025-4.016l-1.63-3.652c-2.882 1.285-5.168 3.09-6.734 5.464l3.338 2.204zm5.038-4.021c2.303-1.047 5.3-1.621 9.072-1.621v-4c-4.147 0-7.751.626-10.728 1.98l1.656 3.64zM19.22 9.28c2.477 0 4.914.3 7.315.9l.97-3.88a34.04 34.04 0 00-8.285-1.02v4zm7.344.907c2.371.556 4.419 1.397 6.167 2.503l2.138-3.38c-2.172-1.374-4.644-2.373-7.393-3.017l-.912 3.894zm5.383.06l-3 7.38 3.706 1.506 3-7.38-3.706-1.506zm-.155 6.396c-2.094-1.196-4.214-2.087-6.36-2.656l-1.025 3.866c1.775.47 3.575 1.22 5.4 2.263l1.985-3.473zm-6.323-2.646c-2.123-.607-4.228-.917-6.309-.917v4c1.68 0 3.414.25 5.21.763l1.1-3.846zm-6.309-.917c-2.015 0-3.81.233-5.309.782l1.377 3.756c.902-.33 2.187-.538 3.932-.538v-4zm-5.309.782c-1.417.52-2.677 1.29-3.512 2.447l3.242 2.342c.205-.284.665-.673 1.648-1.033l-1.377-3.756zm-3.48 2.403c-.807 1.056-1.191 2.29-1.191 3.615h4c0-.516.136-.88.369-1.185l-3.178-2.43zM9.18 19.88c0 1.72.744 3.177 2.097 4.223l2.446-3.166c-.407-.314-.543-.618-.543-1.057h-4zm2.144 4.258c1.13.822 2.53 1.427 4.12 1.869l1.071-3.854c-1.29-.358-2.21-.793-2.839-1.25l-2.352 3.235zm4.12 1.869c1.472.409 3.08.816 4.823 1.221l.906-3.896c-1.697-.395-3.25-.788-4.658-1.179l-1.07 3.854zm4.833 1.223c1.714.39 3.41.838 5.084 1.344l1.158-3.828a78.995 78.995 0 00-5.356-1.416l-.886 3.9zm5.096 1.348c1.607.475 3.045 1.107 4.324 1.889l2.086-3.414c-1.601-.978-3.364-1.746-5.276-2.311l-1.134 3.836zm4.324 1.889a8.342 8.342 0 012.816 2.816l3.414-2.086a12.344 12.344 0 00-4.144-4.144l-2.086 3.414zm2.838 2.85c.663 1.038 1.065 2.456 1.065 4.383h4c0-2.473-.518-4.695-1.695-6.537l-3.37 2.154zM33.6 37.7a9.35 9.35 0 01-1.639 5.363l3.318 2.234A13.353 13.353 0 0037.6 37.7h-4zm-1.639 5.363c-1.07 1.59-2.729 2.955-5.109 4.036l1.656 3.642c2.9-1.319 5.202-3.114 6.77-5.444l-3.317-2.234zm-5.12 4.041c-2.254 1.04-5.243 1.616-9.061 1.616v4c4.182 0 7.793-.625 10.738-1.984l-1.676-3.632zM45.497 50h-2v2h2v-2zm0-38.4l1.414-1.414-3.414-3.414V11.6h2zm4.2 4.2v2h4.828l-3.414-3.414-1.414 1.414zm-12.6 0h-2v2h2v-2zm0-7.8V6h-2v2h2zm18.12 0h2V6h-2v2zm0 42v2h2v-2h-2zm-7.72 0V11.6h-4V50h4zm-3.414-36.986l4.2 4.2 2.828-2.828-4.2-4.2-2.828 2.828zm5.614.786h-12.6v4h12.6v-4zm-10.6 2V8h-4v7.8h4zm-2-5.8h18.12V6h-18.12v4zm16.12-2v42h4V8h-4zm2 40h-9.72v4h9.72v-4zm12.216 1.58l-.535 1.927.012.004.013.003.51-1.934zm-7.32-3.36l-1.783-.906-.776 1.528 1.39 1.001 1.169-1.623zm3.78-7.44l1.174-1.62-1.896-1.374-1.061 2.088 1.783.906zm5.58 2.76l-.611 1.904.61-1.904zm12.18-.42l1.13 1.65-1.13-1.65zm.24-7.74l1.192-1.606-1.192 1.606zM71.452 32h-2v2h2v-2zm0-6.42l-1.5-1.323-.5.567v.756h2zm11.7-13.26l1.91-.593-1.055-3.4-2.355 2.67 1.5 1.323zm1.08 3.48v2h2.715l-.805-2.593-1.91.593zm-22.02 0h-2v2h2v-2zm0-7.8V6h-2v2h2zm29.4 0h2V6h-2v2zm0 6.3l1.503 1.32.497-.567V14.3h-2zm-11.64 13.26l-.995 1.735 1.42.813 1.078-1.229-1.503-1.319zm-4.92-2.82v-2H67.54l6.516 3.735.995-1.735zm14.52 3.48l-1.32 1.502 1.32-1.502zm2.1 15.6l1.709 1.039.004-.008.005-.007-1.718-1.024zm-5.7 4.98l-.895-1.789.895 1.789zm-9.84-.08c-2.744 0-5.473-.357-8.19-1.074l-1.02 3.868a35.962 35.962 0 009.21 1.206v-4zm-8.165-1.067c-2.7-.75-4.914-1.78-6.686-3.056l-2.338 3.246c2.228 1.604 4.893 2.814 7.954 3.664l1.07-3.854zm-6.072-.527l3.78-7.44-3.566-1.812-3.78 7.44 3.566 1.812zm.823-6.727c1.791 1.3 3.847 2.309 6.143 3.045l1.222-3.808c-1.944-.624-3.609-1.454-5.017-2.475l-2.348 3.238zm6.143 3.045a22.904 22.904 0 007.03 1.116v-4a18.92 18.92 0 01-5.808-.924l-1.222 3.808zm7.03 1.116c2.676 0 5.042-.522 6.892-1.79l-2.262-3.3c-.95.652-2.424 1.09-4.63 1.09v4zm6.892-1.79c1.937-1.329 2.969-3.262 2.969-5.61h-4c0 1.012-.368 1.719-1.231 2.31l2.262 3.3zm2.969-5.61c0-2.206-.899-4.073-2.668-5.386L80.7 34.986c.71.527 1.052 1.18 1.052 2.174h4zm-2.668-5.386c-1.765-1.31-4.3-1.774-7.192-1.774v4c2.629 0 4.093.456 4.808.986l2.384-3.212zM75.892 30h-4.44v4h4.44v-4zm-2.44 2v-6.42h-4V32h4zm-.5-5.097l11.7-13.26-3-2.646-11.7 13.26 3 2.646zm8.29-13.99l1.08 3.48 3.82-1.186-1.08-3.48-3.82 1.186zm2.99.887h-22.02v4h22.02v-4zm-20.02 2V8h-4v7.8h4zm-2-5.8h29.4V6h-29.4v4zm27.4-2v6.3h4V8h-4zm.497 4.98l-11.64 13.26 3.006 2.64 11.64-13.26-3.006-2.64zm-9.143 12.845l-4.92-2.82-1.989 3.47 4.92 2.82 1.99-3.47zm-5.914.915h2.82v-4h-2.82v4zm2.82 0c4.897 0 8.243 1.105 10.38 2.982l2.64-3.004c-3.143-2.763-7.597-3.978-13.02-3.978v4zm10.38 2.982c2.19 1.925 3.28 4.35 3.28 7.438h4c0-4.192-1.55-7.727-4.64-10.442l-2.64 3.004zm3.28 7.438c0 1.99-.518 3.857-1.578 5.636l3.436 2.048c1.42-2.381 2.142-4.954 2.142-7.684h-4zm-1.57 5.621c-1.008 1.66-2.594 3.085-4.885 4.23l1.79 3.578c2.828-1.415 5.042-3.31 6.514-5.73l-3.418-2.078zm-4.885 4.23c-2.194 1.097-5.14 1.709-8.945 1.709v4c4.194 0 7.809-.668 10.734-2.131l-1.789-3.578zM106.78 48.2l-1.069 1.69.009.006.009.006 1.051-1.702zm-6.42-7.44l-1.802.868 1.802-.868zm0-23.52l1.802.868-1.802-.868zm6.42-7.38l1.051 1.702.009-.006.009-.006-1.069-1.69zm18.48 0l-1.081 1.683.015.01.015.009 1.051-1.702zm6.42 7.38l-1.802.868 1.802-.868zm0 23.52l-1.802-.868 1.802.868zm-6.42 7.44l1.062 1.695.007-.005-1.069-1.69zm-4.98-7.08l-1.192-1.606-.013.01-.012.009 1.217 1.587zm2.88-4.38l-1.882-.677-.006.016-.006.017 1.894.644zm0-15.48l-1.894.644.006.017.006.016 1.882-.677zm-2.88-4.38l-1.217 1.587.012.01.013.01 1.192-1.607zm-8.52 0l-1.192-1.606-.013.01-.012.009 1.217 1.587zm-2.88 4.38l-1.882-.677-.006.016-.006.017 1.894.644zm0 15.48l-1.894.644.006.017.006.016 1.882-.677zm2.88 4.38l-1.217 1.587.012.01.013.01 1.192-1.607zm4.26 7.6c-3.098 0-5.809-.752-8.189-2.222l-2.102 3.404c3.06 1.89 6.509 2.818 10.291 2.818v-4zm-8.171-2.21c-2.368-1.497-4.27-3.674-5.687-6.618l-3.604 1.736c1.703 3.536 4.08 6.32 7.153 8.262l2.138-3.38zm-5.687-6.618c-1.399-2.904-2.142-6.511-2.142-10.892h-4c0 4.82.816 9.052 2.538 12.628l3.604-1.736zM100.02 29c0-4.38.743-7.988 2.142-10.892l-3.604-1.736C96.836 19.948 96.02 24.181 96.02 29h4zm2.142-10.892c1.415-2.94 3.313-5.091 5.669-6.546l-2.102-3.404c-3.084 1.905-5.467 4.675-7.171 8.214l3.604 1.736zm5.687-6.558c2.378-1.503 5.082-2.27 8.171-2.27v-4c-3.791 0-7.247.953-10.309 2.89l2.138 3.38zm8.171-2.27c3.134 0 5.832.77 8.159 2.263l2.161-3.366c-3.032-1.946-6.494-2.897-10.32-2.897v4zm8.189 2.282c2.356 1.455 4.253 3.605 5.669 6.546l3.604-1.736c-1.705-3.54-4.087-6.309-7.171-8.214l-2.102 3.404zm5.669 6.546c1.398 2.904 2.142 6.511 2.142 10.892h4c0-4.82-.817-9.052-2.538-12.628l-3.604 1.736zM132.02 29c0 4.38-.744 7.988-2.142 10.892l3.604 1.736c1.721-3.576 2.538-7.809 2.538-12.628h-4zm-2.142 10.892c-1.417 2.944-3.32 5.12-5.687 6.618l2.138 3.38c3.072-1.943 5.45-4.726 7.153-8.262l-3.604-1.736zm-5.681 6.613c-2.33 1.461-5.034 2.215-8.177 2.215v4c3.816 0 7.272-.926 10.302-2.825l-2.125-3.39zM116.02 44.5c2.04 0 3.897-.582 5.477-1.793l-2.434-3.174c-.821.629-1.804.967-3.043.967v4zm5.451-1.774c1.667-1.236 2.818-3.096 3.582-5.342l-3.787-1.288c-.596 1.754-1.364 2.814-2.178 3.418l2.383 3.212zm3.57-5.309c.827-2.295 1.199-5.128 1.199-8.417h-4c0 3.03-.349 5.358-.962 7.063l3.763 1.354zM126.24 29c0-3.29-.372-6.122-1.199-8.417l-3.763 1.354c.613 1.705.962 4.032.962 7.063h4zm-1.187-8.384c-.764-2.246-1.915-4.106-3.582-5.342l-2.383 3.212c.814.604 1.582 1.664 2.178 3.418l3.787-1.288zm-3.556-5.323c-1.58-1.211-3.437-1.793-5.477-1.793v4c1.239 0 2.222.338 3.043.967l2.434-3.174zM116.02 13.5c-2.013 0-3.854.588-5.452 1.774l2.383 3.212c.883-.654 1.881-.986 3.069-.986v-4zm-5.477 1.793c-1.604 1.23-2.746 3.07-3.545 5.29l3.763 1.354c.641-1.78 1.42-2.86 2.216-3.47l-2.434-3.174zm-3.557 5.323C106.21 22.9 105.86 25.72 105.86 29h4c0-3.039.329-5.38.913-7.096l-3.787-1.288zM105.86 29c0 3.281.35 6.1 1.126 8.384l3.787-1.288c-.584-1.717-.913-4.057-.913-7.096h-4zm1.138 8.417c.799 2.22 1.941 4.06 3.545 5.29l2.434-3.174c-.796-.61-1.575-1.69-2.216-3.47l-3.763 1.354zm3.57 5.31c1.598 1.185 3.439 1.773 5.452 1.773v-4c-1.188 0-2.186-.332-3.069-.986l-2.383 3.212zm36.934 5.473l-1.069 1.69.009.006.009.006 1.051-1.702zm-6.42-7.44l-1.802.868 1.802-.868zm0-23.52l1.802.868-1.802-.868zm6.42-7.38l1.051 1.702.009-.006.009-.006-1.069-1.69zm18.48 0l-1.08 1.683.015.01.014.009 1.051-1.702zm6.42 7.38l-1.802.868 1.802-.868zm0 23.52l-1.802-.868 1.802.868zm-6.42 7.44l1.063 1.695.006-.005-1.069-1.69zm-4.98-7.08l-1.191-1.606-.013.01-.013.009 1.217 1.587zm2.88-4.38l-1.881-.677-.006.016-.006.017 1.893.644zm0-15.48l-1.893.644.006.017.006.016 1.881-.677zm-2.88-4.38l-1.217 1.587.013.01.013.01 1.191-1.607zm-8.52 0l-1.191-1.606-.013.01-.013.009 1.217 1.587zm-2.88 4.38l-1.881-.677-.006.016-.006.017 1.893.644zm0 15.48l-1.893.644.006.017.006.016 1.881-.677zm2.88 4.38l-1.217 1.587.013.01.013.01 1.191-1.607zm4.26 7.6c-3.098 0-5.809-.752-8.189-2.222l-2.102 3.404c3.06 1.89 6.509 2.818 10.291 2.818v-4zm-8.171-2.21c-2.367-1.497-4.27-3.674-5.687-6.618l-3.604 1.736c1.703 3.536 4.081 6.32 7.153 8.262l2.138-3.38zm-5.687-6.618c-1.398-2.904-2.142-6.511-2.142-10.892h-4c0 4.82.817 9.052 2.538 12.628l3.604-1.736zM140.742 29c0-4.38.744-7.988 2.142-10.892l-3.604-1.736c-1.721 3.576-2.538 7.809-2.538 12.628h4zm2.142-10.892c1.416-2.94 3.314-5.091 5.669-6.546l-2.102-3.404c-3.084 1.905-5.466 4.675-7.171 8.214l3.604 1.736zm5.687-6.558c2.378-1.503 5.083-2.27 8.171-2.27v-4c-3.791 0-7.246.953-10.309 2.89l2.138 3.38zm8.171-2.27c3.134 0 5.832.77 8.16 2.263l2.161-3.366c-3.032-1.946-6.495-2.897-10.321-2.897v4zm8.189 2.282c2.356 1.455 4.254 3.605 5.669 6.546l3.604-1.736c-1.704-3.54-4.086-6.309-7.171-8.214l-2.102 3.404zm5.669 6.546c1.399 2.904 2.142 6.511 2.142 10.892h4c0-4.82-.816-9.052-2.538-12.628l-3.604 1.736zM172.742 29c0 4.38-.743 7.988-2.142 10.892l3.604 1.736c1.722-3.576 2.538-7.809 2.538-12.628h-4zM170.6 39.892c-1.417 2.944-3.319 5.12-5.687 6.618l2.138 3.38c3.073-1.943 5.451-4.726 7.153-8.262l-3.604-1.736zm-5.68 6.613c-2.33 1.461-5.034 2.215-8.178 2.215v4c3.817 0 7.273-.926 10.303-2.825l-2.125-3.39zm-8.178-2.005c2.041 0 3.898-.582 5.477-1.793l-2.434-3.174c-.82.629-1.803.967-3.043.967v4zm5.452-1.774c1.667-1.236 2.818-3.096 3.582-5.342l-3.787-1.288c-.596 1.754-1.365 2.814-2.178 3.418l2.383 3.212zm3.57-5.309c.827-2.295 1.198-5.128 1.198-8.417h-4c0 3.03-.348 5.358-.961 7.063l3.763 1.354zM166.962 29c0-3.29-.371-6.122-1.198-8.417l-3.763 1.354c.613 1.705.961 4.032.961 7.063h4zm-1.186-8.384c-.764-2.246-1.915-4.106-3.582-5.342l-2.383 3.212c.813.604 1.582 1.664 2.178 3.418l3.787-1.288zm-3.557-5.323c-1.579-1.211-3.436-1.793-5.477-1.793v4c1.24 0 2.223.338 3.043.967l2.434-3.174zm-5.477-1.793c-2.012 0-3.854.588-5.451 1.774l2.383 3.212c.882-.654 1.881-.986 3.068-.986v-4zm-5.477 1.793c-1.604 1.23-2.745 3.07-3.544 5.29l3.763 1.354c.641-1.78 1.419-2.86 2.215-3.47l-2.434-3.174zm-3.556 5.323c-.776 2.283-1.127 5.103-1.127 8.384h4c0-3.039.33-5.38.914-7.096l-3.787-1.288zM146.582 29c0 3.281.351 6.1 1.127 8.384l3.787-1.288c-.584-1.717-.914-4.057-.914-7.096h-4zm1.139 8.417c.799 2.22 1.94 4.06 3.544 5.29l2.434-3.174c-.796-.61-1.574-1.69-2.215-3.47l-3.763 1.354zm3.57 5.31c1.597 1.185 3.439 1.773 5.451 1.773v-4c-1.187 0-2.186-.332-3.068-.986l-2.383 3.212z" fill="#D0D0D0"/></svg>