<svg width="61" height="82" fill="none" xmlns="http://www.w3.org/2000/svg"><path d="M9 51a7 7 0 017-7h28a7 7 0 017 7v17.52c0 5.67-6.534 9.142-11.736 6.889C36.1 74.038 32.784 73 30 73c-2.785 0-6.1 1.038-9.264 2.409C15.534 77.662 9 74.19 9 68.52V51z" fill="#50B6F3"/><g filter="url(#filter0_b_138_510)"><circle cx="30.5" cy="30.5" r="30.5" fill="#fff" fill-opacity=".22"/></g><path d="M28.098 20.854c.599-1.842 3.205-1.842 3.804 0l1.241 3.82a2 2 0 001.902 1.382h4.017c1.937 0 2.742 2.479 1.175 3.618l-3.25 2.36a2 2 0 00-.726 2.236l1.241 3.82c.6 1.843-1.51 3.375-3.077 2.236l-3.25-2.36a2 2 0 00-2.35 0l-3.25 2.36c-1.567 1.139-3.676-.393-3.077-2.236l1.24-3.82a2 2 0 00-.726-2.236l-3.25-2.36c-1.567-1.139-.761-3.618 1.177-3.618h4.016a2 2 0 001.902-1.382l1.24-3.82z" fill="#D9D9D9"/><defs><filter id="filter0_b_138_510" x="-15" y="-15" width="91" height="91" filterUnits="userSpaceOnUse" color-interpolation-filters="sRGB"><feFlood flood-opacity="0" result="BackgroundImageFix"/><feGaussianBlur in="BackgroundImageFix" stdDeviation="7.5"/><feComposite in2="SourceAlpha" operator="in" result="effect1_backgroundBlur_138_510"/><feBlend in="SourceGraphic" in2="effect1_backgroundBlur_138_510" result="shape"/></filter></defs></svg>