<svg width="777" height="407" fill="none" xmlns="http://www.w3.org/2000/svg"><g opacity=".33"><path d="M47.719 143.624L0 0h40.724l40.224 125.64H60.21L102.434 0h36.476l39.974 125.64h-19.487L200.87 0h37.975l-47.469 143.624h-42.223L114.426 35.719h10.993L89.942 143.624H47.719zm215.866 0V0h39.474v54.952h58.462V0h39.475v143.624h-39.475v-56.95h-58.462v56.95h-39.474zm175.911 0V0h39.474v143.624h-39.474zm104.569 0v-112.9h-45.221V0H628.76v30.723h-45.221v112.901h-39.474zM684.054 56.45h69.455v28.725h-69.455V56.451zm3.998 56.951h76.7v30.223H649.077V0h112.927v30.224h-73.952V113.4z" fill="#302E35"/><path d="M20.15 362.015V177.333h50.748v145.176h90.253v39.506h-141z" fill="url(#paint0_linear_133_5)"/><path d="M233.55 249.921h89.29v36.936h-89.29v-36.936zm5.139 73.23h98.604v38.864H188.584V177.333H333.76v38.864h-95.071v106.954z" fill="url(#paint1_linear_133_5)"/><path d="M346.648 362.015l82.865-184.682h50.105l83.187 184.682H512.7l-66.485-160.272h17.023l-67.449 160.272h-49.141zm45.287-36.615l13.168-36.616h91.217l13.168 36.616H391.935z" fill="url(#paint2_linear_133_5)"/><path d="M584.734 362.015V177.333h87.041c21.198 0 39.612 3.747 55.243 11.242 15.846 7.494 28.051 18.2 36.616 32.118 8.779 13.704 13.168 30.085 13.168 49.142 0 18.842-4.389 35.223-13.168 49.141-8.565 13.704-20.77 24.303-36.616 31.797-15.631 7.495-34.045 11.242-55.243 11.242h-87.041zm50.747-39.827h34.688c11.348 0 21.091-2.034 29.228-6.103 8.35-4.068 14.774-9.957 19.271-17.665 4.496-7.923 6.745-17.451 6.745-28.585 0-11.349-2.249-20.877-6.745-28.586-4.497-7.922-10.921-13.918-19.271-17.986-8.137-4.069-17.88-6.103-29.228-6.103h-34.688v105.028z" fill="url(#paint3_linear_133_5)"/><path fill-rule="evenodd" clip-rule="evenodd" d="M103.596 402.163c10.47 0 18.958-8.488 18.958-18.959s-8.488-18.959-18.958-18.959c-10.471 0-18.96 8.488-18.96 18.959s8.489 18.959 18.96 18.959zm0 4.461c12.934 0 23.419-10.486 23.419-23.42 0-12.934-10.485-23.42-23.419-23.42-12.935 0-23.42 10.486-23.42 23.42 0 12.934 10.485 23.42 23.42 23.42zm569.88-156.327l-2.179 4.89a6.694 6.694 0 01-5.41 3.931l-5.324.562 3.977 3.584a6.69 6.69 0 012.066 6.359l-1.111 5.237 4.638-2.675a6.692 6.692 0 016.686 0l4.638 2.675-1.111-5.237a6.691 6.691 0 012.067-6.359l3.977-3.584-5.325-.562a6.693 6.693 0 01-5.409-3.931l-2.18-4.89zm2.038-6.386c-.786-1.763-3.289-1.763-4.075 0l-4.217 9.46a2.229 2.229 0 01-1.803 1.31l-10.301 1.087c-1.919.203-2.693 2.583-1.259 3.875l7.695 6.935c.591.533.854 1.34.688 2.119l-2.149 10.133c-.4 1.888 1.624 3.359 3.297 2.395l8.972-5.175a2.23 2.23 0 012.229 0l8.972 5.175c1.672.964 3.697-.507 3.296-2.395l-2.149-10.133a2.23 2.23 0 01.689-2.119l7.694-6.935c1.434-1.292.661-3.672-1.259-3.875l-10.3-1.087a2.229 2.229 0 01-1.803-1.31l-4.217-9.46z" fill="#302E35"/><path fill-rule="evenodd" clip-rule="evenodd" d="M165.466 284.539c-27.472 27.874-45.808 60.527-54.256 79.498l-4.075-1.814c8.603-19.319 27.211-52.463 55.154-80.815 27.945-28.354 65.426-52.105 111.71-52.105 57.851 0 97.179 36.383 134.225 71.997l3.055 2.94c36.179 34.816 70.465 67.812 118.486 67.812 40.008 0 67.683-8.932 88.069-22.623 20.408-13.706 33.72-32.319 44.774-52.071l3.893 2.178c-11.206 20.024-24.935 39.329-46.18 53.596-21.266 14.283-49.855 23.381-90.556 23.381-49.856 0-85.361-34.187-121.07-68.568l-3.563-3.429c-37.198-35.761-75.31-70.752-131.133-70.752-44.655 0-81.062 22.902-108.533 50.775z" fill="#302E35"/><path d="M233.55 249.921h89.289v36.936H233.55v-36.936zm5.139 73.23h98.604v38.864H188.584V177.333H333.76v38.864h-95.071v106.954z" fill="url(#paint4_linear_133_5)"/><path d="M346.647 362.015l82.866-184.682h50.105l83.187 184.682H512.7l-66.485-160.272h17.022l-67.448 160.272h-49.142zm45.287-36.615l13.169-36.616h91.216l13.169 36.616H391.934z" fill="url(#paint5_linear_133_5)"/><path fill-rule="evenodd" clip-rule="evenodd" d="M664.451 294.494a2.231 2.231 0 012.869 1.312l4.4 11.825a2.23 2.23 0 11-4.18 1.556l-4.401-11.825a2.23 2.23 0 011.312-2.868z" fill="#302E35"/><path fill-rule="evenodd" clip-rule="evenodd" d="M667.32 295.806a2.231 2.231 0 00-2.869-1.312l-11.825 4.401a2.23 2.23 0 101.556 4.18l11.825-4.401a2.23 2.23 0 001.313-2.868zM94.212 373.821a2.229 2.229 0 013.154 0l15.613 15.613a2.23 2.23 0 11-3.154 3.154l-15.613-15.613a2.23 2.23 0 010-3.154z" fill="#302E35"/><path fill-rule="evenodd" clip-rule="evenodd" d="M112.98 373.821a2.231 2.231 0 00-3.155 0l-15.613 15.613a2.23 2.23 0 103.154 3.154l15.614-15.613a2.23 2.23 0 000-3.154z" fill="#302E35"/><path d="M115.863 266.105c0 18.478-14.979 33.457-33.457 33.457s-33.457-14.979-33.457-33.457c0-18.477 14.98-33.456 33.457-33.456 18.478 0 33.457 14.979 33.457 33.456z" fill="#343434"/><path d="M91.404 266.745c2.204-.396 3.918-1.751 4.508-4.697.81-4.023-2.156-6.355-6.29-8.017l1.645-5.423-3.29-.999-1.604 5.28c-.865-.263-1.753-.513-2.637-.762l1.612-5.315-3.288-.998-1.645 5.422c-.717-.202-1.421-.4-2.104-.607l.004-.017-4.538-1.379-1.069 3.526s2.444.691 2.39.723c1.333.406 1.532 1.314 1.454 2.022l-1.874 6.178-2.633 8.678c-.186.403-.637 1-1.569.718.031.051-2.393-.726-2.393-.726l-1.849 3.743 4.282 1.3c.797.243 1.577.493 2.344.732l-1.661 5.486 3.286.998 1.646-5.427c.899.293 1.77.565 2.622.823l-1.64 5.401 3.29.999 1.664-5.475c5.628 1.359 9.924 1.136 11.987-3.929 1.661-4.079.261-6.549-2.65-8.258zm-8.767-10.714c1.856.563 7.872 1.741 6.693 5.631-1.132 3.729-6.835 1.523-8.693.96l2-6.591zm-5.216 17.184l2.207-7.266c2.23.676 9.418 2.155 8.122 6.43-1.243 4.101-8.097 1.511-10.329.836z" fill="#464646"/><path fill-rule="evenodd" clip-rule="evenodd" d="M499.375 245.069l-.002-.002a21.502 21.502 0 0121.417-36.166l1.111-3.337a25.014 25.014 0 00-29.432 10.992 25.013 25.013 0 001.517 27.764 25.015 25.015 0 002.998 3.327l2.391-2.578zm30.064-32.545l.002.001a21.512 21.512 0 017.296 13.007 21.508 21.508 0 01-14.655 23.834 21.5 21.5 0 01-14.901-.641l-1.36 3.243a25.02 25.02 0 0025.898-42.121l-2.28 2.677z" fill="#302E35"/><path fill-rule="evenodd" clip-rule="evenodd" d="M525.045 205.854a2.23 2.23 0 01-.385 3.131l-8.581 6.7a2.23 2.23 0 01-2.746-3.516l8.582-6.7a2.229 2.229 0 013.13.385z" fill="#302E35"/><path fill-rule="evenodd" clip-rule="evenodd" d="M524.66 208.985a2.23 2.23 0 00.385-3.13l-6.7-8.582a2.23 2.23 0 10-3.516 2.746l6.7 8.581a2.23 2.23 0 003.131.385zm-22.446 42.898a2.231 2.231 0 01.622-3.093l9.063-6.031a2.23 2.23 0 012.472 3.714l-9.064 6.031a2.232 2.232 0 01-3.093-.621z" fill="#302E35"/><path fill-rule="evenodd" clip-rule="evenodd" d="M502.836 248.789a2.23 2.23 0 00-.621 3.093l6.031 9.064a2.232 2.232 0 003.714-2.472l-6.031-9.063a2.231 2.231 0 00-3.093-.622z" fill="#302E35"/></g><defs><linearGradient id="paint0_linear_133_5" x1="59.174" y1="196.598" x2="670.877" y2="345.392" gradientUnits="userSpaceOnUse"><stop stop-color="#222126"/><stop offset="1" stop-color="#1D1C21"/></linearGradient><linearGradient id="paint1_linear_133_5" x1="59.174" y1="196.598" x2="670.877" y2="345.392" gradientUnits="userSpaceOnUse"><stop stop-color="#222126"/><stop offset="1" stop-color="#1D1C21"/></linearGradient><linearGradient id="paint2_linear_133_5" x1="59.174" y1="196.598" x2="670.877" y2="345.392" gradientUnits="userSpaceOnUse"><stop stop-color="#222126"/><stop offset="1" stop-color="#1D1C21"/></linearGradient><linearGradient id="paint3_linear_133_5" x1="59.174" y1="196.598" x2="670.877" y2="345.392" gradientUnits="userSpaceOnUse"><stop stop-color="#222126"/><stop offset="1" stop-color="#1D1C21"/></linearGradient><linearGradient id="paint4_linear_133_5" x1="59.174" y1="196.598" x2="670.877" y2="345.392" gradientUnits="userSpaceOnUse"><stop stop-color="#3F3E45"/><stop offset="1" stop-color="#1D1C21"/></linearGradient><linearGradient id="paint5_linear_133_5" x1="59.174" y1="196.598" x2="670.877" y2="345.392" gradientUnits="userSpaceOnUse"><stop stop-color="#3F3E45"/><stop offset="1" stop-color="#1D1C21"/></linearGradient></defs></svg>