<svg width="417" height="218" fill="none" xmlns="http://www.w3.org/2000/svg"><path d="M25.583 77L0 0h21.833l21.565 67.358H32.28L54.917 0h19.556l21.43 67.358H85.456L107.691 0h20.359l-25.449 77H79.964L61.346 19.15h5.894L48.22 77H25.583zm115.731 0V0h21.163v29.46h31.342V0h21.163v77h-21.163V46.468h-31.342V77h-21.163zm94.309 0V0h21.163v77h-21.163zm56.062 0V16.471h-24.244V0h69.651v16.471h-24.244V77h-21.163zm75.051-46.736h37.237v15.4h-37.237v-15.4zm2.143 30.533H410V77h-62.016V0h60.543v16.203h-39.648v44.594z" fill="#D0D0D0"/><path d="M10.803 194.084V95.072h27.206v77.832h48.387v21.18H10.803z" fill="url(#paint0_linear_133_66)"/><path d="M125.211 133.988h47.87v19.803h-47.87v-19.803zm2.755 39.261h52.864v20.835h-79.726V95.072h77.832v20.836h-50.97v57.341z" fill="url(#paint1_linear_133_66)"/><path d="M185.845 194.084l44.426-99.012h26.862l44.599 99.012h-26.863l-35.644-85.925h9.126l-36.16 85.925h-26.346zm24.279-19.63l7.06-19.63h48.903l7.06 19.63h-63.023z" fill="url(#paint2_linear_133_66)"/><path d="M313.488 194.084V95.072h46.665c11.364 0 21.237 2.01 29.617 6.027 8.495 4.018 15.038 9.758 19.63 17.22 4.707 7.347 7.06 16.128 7.06 26.345 0 10.102-2.353 18.884-7.06 26.346-4.592 7.347-11.135 13.029-19.63 17.047-8.38 4.018-18.253 6.027-29.617 6.027h-46.665zm27.207-21.352h18.597c6.084 0 11.307-1.091 15.669-3.272 4.477-2.181 7.921-5.338 10.332-9.47 2.411-4.248 3.616-9.356 3.616-15.326 0-6.084-1.205-11.192-3.616-15.325-2.411-4.247-5.855-7.462-10.332-9.643-4.362-2.181-9.585-3.272-15.669-3.272h-18.597v56.308z" fill="url(#paint3_linear_133_66)"/><path fill-rule="evenodd" clip-rule="evenodd" d="M55.54 215.608c5.614 0 10.164-4.55 10.164-10.164 0-5.613-4.55-10.164-10.164-10.164-5.613 0-10.164 4.551-10.164 10.164 0 5.614 4.55 10.164 10.164 10.164zm0 2.392c6.935 0 12.556-5.621 12.556-12.556 0-6.934-5.621-12.556-12.556-12.556-6.934 0-12.556 5.622-12.556 12.556 0 6.935 5.622 12.556 12.556 12.556z" fill="#D0D0D0"/><path fill-rule="evenodd" clip-rule="evenodd" d="M361.064 134.19l-1.168 2.621a3.587 3.587 0 01-2.9 2.107l-2.855.302 2.132 1.921a3.587 3.587 0 011.108 3.41l-.595 2.807 2.486-1.434a3.592 3.592 0 013.585 0l2.486 1.434-.595-2.807a3.588 3.588 0 011.107-3.41l2.133-1.921-2.855-.302a3.586 3.586 0 01-2.9-2.107l-1.169-2.621zm1.093-3.424c-.422-.946-1.764-.946-2.185 0l-2.261 5.072c-.174.39-.542.657-.966.702l-5.523.583c-1.029.109-1.444 1.385-.675 2.077l4.125 3.718c.317.286.458.719.37 1.136l-1.153 5.433c-.214 1.012.871 1.801 1.768 1.283l4.81-2.774c.37-.213.825-.213 1.195 0l4.81 2.774c.897.518 1.982-.271 1.767-1.283l-1.152-5.433c-.088-.417.052-.85.369-1.136l4.125-3.718c.769-.692.355-1.968-.675-2.077l-5.522-.583a1.197 1.197 0 01-.967-.702l-2.26-5.072z" fill="#fff"/><path fill-rule="evenodd" clip-rule="evenodd" d="M88.71 152.547c-14.728 14.944-24.558 32.451-29.088 42.621l-2.184-.973c4.612-10.357 14.588-28.126 29.569-43.326 14.982-15.201 35.076-27.935 59.89-27.935 31.015 0 52.1 19.506 71.961 38.599l1.638 1.576c19.396 18.666 37.777 36.356 63.523 36.356 21.449 0 36.286-4.788 47.216-12.128 10.941-7.348 18.077-17.327 24.004-27.917l2.087 1.168c-6.008 10.735-13.369 21.085-24.758 28.734-11.401 7.657-26.729 12.535-48.549 12.535-26.729 0-45.764-18.328-64.908-36.761a3251.37 3251.37 0 00-1.911-1.838c-19.942-19.172-40.375-37.932-70.303-37.932-23.94 0-43.459 12.278-58.187 27.221z" fill="#D0D0D0"/><path fill-rule="evenodd" clip-rule="evenodd" d="M356.227 157.884a1.195 1.195 0 011.538.703l2.36 6.34a1.197 1.197 0 01-2.242.834l-2.359-6.339a1.196 1.196 0 01.703-1.538z" fill="#D0D0D0"/><path fill-rule="evenodd" clip-rule="evenodd" d="M357.766 158.587a1.195 1.195 0 00-1.538-.703l-6.339 2.359a1.197 1.197 0 00.834 2.242l6.34-2.36c.619-.23.934-.919.703-1.538zM50.508 200.413a1.196 1.196 0 011.692 0l8.37 8.371a1.196 1.196 0 11-1.691 1.691l-8.37-8.371a1.196 1.196 0 010-1.691z" fill="#D0D0D0"/><path fill-rule="evenodd" clip-rule="evenodd" d="M60.57 200.413a1.196 1.196 0 00-1.691 0l-8.371 8.371a1.196 1.196 0 101.691 1.691l8.37-8.371a1.196 1.196 0 000-1.691z" fill="#D0D0D0"/><path d="M125.791 133.988h47.87v19.803h-47.87v-19.803zm2.755 39.261h52.864v20.835h-79.726V95.072h77.831v20.836h-50.969v57.341z" fill="url(#paint4_linear_133_66)"/><path d="M186.425 194.084l44.426-99.012h26.862l44.598 99.012h-26.862l-35.644-85.925h9.126l-36.161 85.925h-26.345zm24.279-19.63l7.06-19.63h48.903l7.06 19.63h-63.023z" fill="url(#paint5_linear_133_66)"/><path d="M62.116 142.665c0 9.906-8.03 17.937-17.937 17.937-9.906 0-17.937-8.031-17.937-17.937s8.03-17.937 17.937-17.937c9.906 0 17.937 8.031 17.937 17.937z" fill="#B3DC5C"/><path d="M49.004 143.008c1.181-.213 2.1-.939 2.416-2.518.435-2.157-1.155-3.407-3.371-4.298l.881-2.908-1.764-.535-.86 2.831c-.463-.141-.94-.276-1.413-.409l.864-2.849-1.763-.535-.882 2.906c-.384-.108-.762-.214-1.128-.325l.003-.009-2.433-.739-.573 1.89s1.31.37 1.281.388c.714.217.821.704.78 1.083l-1.005 3.313-1.412 4.652c-.1.216-.341.536-.841.385.017.027-1.283-.389-1.283-.389l-.991 2.007 2.295.696c.428.13.846.265 1.257.393l-.89 2.941 1.761.535.883-2.91c.481.157.948.304 1.405.442l-.879 2.895 1.764.536.892-2.935c3.017.728 5.32.609 6.426-2.107.891-2.187.14-3.511-1.42-4.427zm-4.7-5.744c.995.302 4.22.933 3.588 3.019-.607 1.999-3.665.817-4.66.514l1.072-3.533zm-2.797 9.213l1.183-3.896c1.196.362 5.05 1.155 4.355 3.448-.667 2.198-4.341.81-5.538.448z" fill="#fff"/><path fill-rule="evenodd" clip-rule="evenodd" d="M267.727 131.387l-.001-.001a11.53 11.53 0 0111.482-19.39l.596-1.788a13.401 13.401 0 00-8.93.161 13.41 13.41 0 00-8.581 14.493 13.401 13.401 0 004.153 7.907l1.281-1.382zm16.117-17.448l.001.001a11.523 11.523 0 012.345 14.814 11.527 11.527 0 01-14.279 4.593l-.73 1.739a13.417 13.417 0 0016.615-5.344 13.415 13.415 0 00-2.73-17.238l-1.222 1.435z" fill="#B3DC5C"/><path fill-rule="evenodd" clip-rule="evenodd" d="M281.49 110.363a1.196 1.196 0 01-.206 1.679l-4.601 3.592a1.195 1.195 0 01-1.472-1.885l4.601-3.592a1.195 1.195 0 011.678.206z" fill="#B3DC5C"/><path fill-rule="evenodd" clip-rule="evenodd" d="M281.283 112.042a1.197 1.197 0 00.207-1.679l-3.592-4.6a1.197 1.197 0 10-1.885 1.472l3.592 4.6a1.195 1.195 0 001.678.207zm-12.035 22.998a1.196 1.196 0 01.333-1.658l4.86-3.234a1.197 1.197 0 011.325 1.991l-4.86 3.234a1.196 1.196 0 01-1.658-.333z" fill="#B3DC5C"/><path fill-rule="evenodd" clip-rule="evenodd" d="M269.581 133.382a1.196 1.196 0 00-.333 1.658l3.234 4.859a1.197 1.197 0 001.991-1.325l-3.234-4.859a1.196 1.196 0 00-1.658-.333z" fill="#B3DC5C"/><defs><linearGradient id="paint0_linear_133_66" x1="31.724" y1="105.4" x2="359.671" y2="185.172" gradientUnits="userSpaceOnUse"><stop stop-color="#54BDF5"/><stop offset="1" stop-color="#398BE9"/></linearGradient><linearGradient id="paint1_linear_133_66" x1="31.724" y1="105.4" x2="359.671" y2="185.172" gradientUnits="userSpaceOnUse"><stop stop-color="#54BDF5"/><stop offset="1" stop-color="#398BE9"/></linearGradient><linearGradient id="paint2_linear_133_66" x1="31.724" y1="105.4" x2="359.671" y2="185.172" gradientUnits="userSpaceOnUse"><stop stop-color="#54BDF5"/><stop offset="1" stop-color="#398BE9"/></linearGradient><linearGradient id="paint3_linear_133_66" x1="31.724" y1="105.4" x2="359.671" y2="185.172" gradientUnits="userSpaceOnUse"><stop stop-color="#54BDF5"/><stop offset="1" stop-color="#398BE9"/></linearGradient><linearGradient id="paint4_linear_133_66" x1="105.515" y1="105.4" x2="276.659" y2="126.216" gradientUnits="userSpaceOnUse"><stop stop-color="#54BDF5"/><stop offset="1" stop-color="#398BE9"/></linearGradient><linearGradient id="paint5_linear_133_66" x1="105.515" y1="105.4" x2="276.659" y2="126.216" gradientUnits="userSpaceOnUse"><stop stop-color="#54BDF5"/><stop offset="1" stop-color="#398BE9"/></linearGradient></defs></svg>