<svg width="127" height="34" fill="none" xmlns="http://www.w3.org/2000/svg"><g opacity=".55"><path d="M40.61 6.738a.53.53 0 00-.524.448l-3.025 19.201a.49.49 0 00.485.568h3.588c.26 0 .483-.19.524-.448l.889-5.639a.53.53 0 01.524-.448h3.262c3.812 0 7.047-2.783 7.638-6.554.596-3.803-2.373-7.12-6.58-7.128h-6.78zm3.488 4.286h2.61c2.149 0 2.849 1.27 2.628 2.672-.222 1.406-1.308 2.442-3.387 2.442h-2.657l.806-5.114zm17.17 1.306c-.905.003-1.948.189-3.118.677-2.685 1.12-3.974 3.434-4.521 5.12 0 0-1.743 5.149 2.194 7.977 0 0 3.651 2.722 7.762-.168l-.071.451a.492.492 0 00.484.568h3.407a.53.53 0 00.524-.448L70 13.357a.492.492 0 00-.485-.568H66.11a.53.53 0 00-.524.449l-.112.707s-1.487-1.626-4.205-1.615zm.112 4.153c.391 0 .749.054 1.07.157 1.47.472 2.303 1.885 2.062 3.416-.298 1.886-1.843 3.275-3.825 3.275-.39 0-.748-.054-1.07-.157-1.469-.472-2.307-1.885-2.066-3.417.297-1.885 1.847-3.274 3.83-3.274zm28.281-9.745a.53.53 0 00-.524.448L86.11 26.387a.49.49 0 00.486.568h3.588c.26 0 .483-.19.524-.448l.889-5.639a.53.53 0 01.524-.448h3.262c3.811 0 7.047-2.783 7.637-6.554.597-3.803-2.372-7.12-6.58-7.128h-6.78zm3.488 4.286h2.61c2.149 0 2.849 1.27 2.627 2.672-.221 1.406-1.307 2.442-3.386 2.442h-2.657l.806-5.114zm17.17 1.306c-.906.003-1.948.189-3.119.677-2.684 1.12-3.974 3.434-4.521 5.12 0 0-1.742 5.149 2.195 7.977 0 0 3.651 2.722 7.762-.168l-.071.451a.497.497 0 00.112.396.49.49 0 00.373.172h3.406a.53.53 0 00.524-.448l2.073-13.15a.498.498 0 00-.28-.522.494.494 0 00-.206-.046h-3.406a.53.53 0 00-.524.449l-.111.707s-1.488-1.626-4.207-1.615zm.112 4.153c.391 0 .748.054 1.069.157 1.47.472 2.303 1.885 2.062 3.416-.297 1.886-1.843 3.275-3.824 3.275-.391 0-.749-.054-1.07-.157-1.47-.472-2.308-1.885-2.067-3.417.297-1.885 1.848-3.274 3.83-3.274zM71.618 12.79a.4.4 0 00-.38.52l3.734 11.596-3.376 5.465a.398.398 0 00.338.608h3.99a.663.663 0 00.568-.32l10.43-17.266a.399.399 0 00-.342-.604h-3.99a.663.663 0 00-.57.326l-4.106 6.936-2.084-6.885a.531.531 0 00-.508-.377h-3.704zm51.304-6.052a.53.53 0 00-.524.448l-3.027 19.2a.49.49 0 00.486.569h3.588a.53.53 0 00.524-.448l3.025-19.201a.496.496 0 00-.111-.396.496.496 0 00-.373-.172h-3.588zm-112.224 0a.97.97 0 00-.959.82L8.146 17.666a.97.97 0 01.959-.82h4.667c4.697 0 8.682-3.428 9.41-8.075.055-.347.085-.697.092-1.048-1.193-.627-2.595-.985-4.132-.985h-8.444z" fill="#D0D0D0"/><path d="M23.275 7.723a7.78 7.78 0 01-.092 1.048c-.728 4.647-4.714 8.076-9.41 8.076H9.106a.97.97 0 00-.959.82l-1.464 9.288-.917 5.828a.788.788 0 00.778.911h5.065a.971.971 0 00.959-.82l1.334-8.468a.973.973 0 01.96-.82h2.982c4.697 0 8.682-3.43 9.41-8.076.517-3.298-1.142-6.299-3.979-7.787z" fill="#B0B0B0"/><path d="M4.943 0a.97.97 0 00-.958.82L.01 26.043a.789.789 0 00.779.912h5.894l1.464-9.29L9.74 7.559a.972.972 0 01.958-.82h8.445c1.536 0 2.938.36 4.132.985C23.357 3.493 19.868 0 15.072 0H4.943z" fill="#D0D0D0"/></g></svg>