<svg width="107" height="34" fill="none" xmlns="http://www.w3.org/2000/svg"><g opacity=".55"><path d="M39.234 32.314l5.435-31.27h8.492l-5.265 31.27h-8.662zM78.636 1.39C76.938.695 74.22 0 70.823 0c-8.492 0-14.606 4.343-14.606 10.597 0 4.69 4.246 7.123 7.643 8.686 3.397 1.564 4.416 2.606 4.416 3.996 0 2.085-2.718 3.127-5.095 3.127-3.397 0-5.266-.521-8.153-1.737l-1.189-.521-1.189 7.122c2.038.869 5.775 1.738 9.681 1.738 9.002 0 14.946-4.344 14.946-10.945 0-3.648-2.208-6.428-7.303-8.686-3.057-1.564-4.925-2.432-4.925-3.996 0-1.39 1.528-2.78 4.925-2.78 2.888 0 4.926.522 6.454 1.217l.85.347 1.358-6.775zM93.154 1c-2.038 0-3.567.174-4.416 2.258L76 32.27h9.171l1.699-5.212h10.87l1.019 5.212h8.152L99.777 1h-6.623zm-3.906 20.847c.509-1.564 3.397-9.208 3.397-9.208s.679-1.91 1.188-3.127l.51 2.954s1.698 7.817 2.038 9.554h-7.133v-.173zM23.61 22.933l-.85-4.516c-1.529-5.212-6.454-10.945-11.889-13.725l7.643 27.796h9.171l13.758-31.27H32.27l-8.66 21.715z" fill="#D0D0D0"/><path d="M0 1.044l1.529.347c10.87 2.606 18.342 9.208 21.23 17.025L19.7 3.65c-.509-2.085-2.038-2.606-3.906-2.606H0z" fill="#B0B0B0"/></g></svg>