<svg width="66" height="35" fill="none" xmlns="http://www.w3.org/2000/svg"><path fill-rule="evenodd" clip-rule="evenodd" d="M45.436 29.998c-3.497-.078-7.306-.53-11.233-1.395-14.613-3.22-25.336-10.927-23.95-17.216C11.638 5.098 24.607 2.61 39.22 5.828a60.953 60.953 0 017.698 2.224c-4.006-1.836-8.684-3.406-13.768-4.526C16.425-.158 1.64 2.427.126 9.3c-1.514 6.873 10.817 15.431 27.542 19.115 6.422 1.415 12.559 1.905 17.768 1.583z" fill="#ACACAC"/><ellipse cx="36.713" cy="17.215" rx="27.093" ry="11.66" transform="rotate(12.422 36.713 17.215)" fill="#fff"/><ellipse cx="50.258" cy="13.119" rx="14.607" ry="6.862" transform="rotate(12.422 50.258 13.119)" fill="#ACACAC"/><path fill-rule="evenodd" clip-rule="evenodd" d="M44.887 20.918c10.319 2.273 19.511.359 20.532-4.276 1.021-4.635-6.516-10.235-16.835-12.508-10.319-2.273-19.512-.358-20.532 4.277-1.021 4.635 6.516 10.235 16.835 12.507zm3.896-1.098c7.879 1.735 14.926.142 15.742-3.56.815-3.7-4.911-8.107-12.79-9.842-7.878-1.736-14.926-.142-15.74 3.559-.816 3.7 4.91 8.107 12.788 9.843z" fill="#010101"/></svg>