<svg width="156" height="43" fill="none" xmlns="http://www.w3.org/2000/svg"><g opacity=".55"><path d="M21.236 42.473c11.729 0 21.237-9.508 21.237-21.237C42.473 9.508 32.965 0 21.236 0 9.508 0 0 9.508 0 21.236c0 11.729 9.508 21.237 21.236 21.237z" fill="#D0D0D0"/><path d="M23.499 23.196v-.003c-.147.01-.905.054-2.591.054a55.37 55.37 0 01-2.63-.054v.003c-5.185-.229-9.054-1.13-9.054-2.212 0-1.08 3.872-1.984 9.055-2.213v3.527c.338.024 1.31.082 2.652.082 1.612 0 2.418-.068 2.568-.082v-3.523c5.176.232 9.034 1.133 9.034 2.212 0 1.079-3.861 1.98-9.034 2.212m0-4.79v-3.154h7.221v-4.811H11.061v4.81h7.221v3.155c-5.869.27-10.28 1.43-10.28 2.824 0 1.393 4.414 2.554 10.28 2.827v10.113h5.22V24.06c5.86-.27 10.264-1.43 10.264-2.824 0-1.39-4.405-2.554-10.264-2.823" fill="#fff"/><path d="M60.511 11.759v5.1h4.958v3.828h-4.992v7.76c0 1.714.946 2.55 2.332 2.55.693 0 1.496-.218 2.151-.546l1.24 3.79c-1.274.509-2.332.727-3.681.765-3.899.147-6.45-2.076-6.45-6.559v-7.76h-3.352v-3.828h3.352v-4.626l4.442-.474zm85.468 4.861l.328 2.076c1.386-2.222 3.243-2.55 5.067-2.55 1.857 0 3.643.727 4.626 1.71l-2.004 3.862c-.912-.765-1.748-1.168-3.206-1.168-2.332 0-4.483 1.24-4.483 4.555v9.474h-4.445V16.614l4.117.006zm-10.895 6.887c-.29-2.332-2.113-3.5-4.663-3.5-2.404 0-4.374 1.168-5.03 3.5h9.693zm-9.764 3.68c.29 2.223 2.222 3.828 5.357 3.828 1.638 0 3.789-.622 4.81-1.677l2.841 2.807c-1.895 1.966-4.992 2.916-7.726 2.916-6.194 0-9.878-3.828-9.878-9.584 0-5.466 3.718-9.403 9.55-9.403 6.012 0 9.768 3.718 9.075 11.113H125.32zM105.715 9.075v9.983c1.605-2.076 3.572-2.697 5.613-2.697 5.101 0 7.361 3.462 7.361 8.747v9.475h-4.445v-9.437c0-3.281-1.714-4.664-4.083-4.664-2.626 0-4.446 2.223-4.446 4.92v9.184h-4.445V9.078l4.445-.003zm-11.806 2.479v5.1h4.958v3.828h-4.992v7.76c0 1.714.95 2.55 2.332 2.55.693 0 1.495-.218 2.15-.546l1.24 3.79c-1.273.509-2.332.727-3.68.765-3.9.147-6.45-2.08-6.45-6.559v-7.76h-3.352v-3.827h3.352v-4.627l4.442-.474zM81.63 23.507c-.291-2.332-2.114-3.5-4.665-3.5-2.403 0-4.373 1.168-5.029 3.5h9.693zm-9.765 3.68c.29 2.223 2.222 3.828 5.356 3.828 1.64 0 3.79-.622 4.811-1.677l2.84 2.807c-1.894 1.966-4.99 2.916-7.726 2.916-6.196 0-9.877-3.828-9.877-9.584 0-5.466 3.718-9.403 9.546-9.403 6.013 0 9.765 3.718 9.075 11.113H71.864z" fill="#D0D0D0"/></g></svg>