<svg width="28" height="26" fill="none" xmlns="http://www.w3.org/2000/svg"><path fill-rule="evenodd" clip-rule="evenodd" d="M21.448 25.713c.376.296.86.37 1.291.188.432-.183.75-.594.845-1.092C24.598 19.5 27.057 6.062 27.98 1.233a1.084 1.084 0 00-.303-.986.86.86 0 00-.93-.182C21.855 2.083 6.79 8.381.633 10.92c-.391.161-.645.58-.633 1.039.014.46.292.86.692.993 2.762.92 6.386 2.201 6.386 2.201s1.694 5.7 2.578 8.6c.11.363.366.65.703.748a.939.939 0 00.946-.269l3.612-3.8s4.167 3.405 6.531 5.28zM8.603 14.433l1.96 7.2.434-4.56L22.88 5.131a.39.39 0 00.039-.49.31.31 0 00-.439-.083L8.603 14.433z" fill="#D0D0D0"/></svg>