<svg width="134" height="29" fill="none" xmlns="http://www.w3.org/2000/svg"><g opacity=".55"><path d="M27.558 18c-1.868 7.496-9.46 12.057-16.955 10.188C3.111 26.319-1.45 18.728.42 11.234 2.287 3.738 9.878-.823 17.371 1.045c7.495 1.869 12.056 9.46 10.187 16.956z" fill="#D0D0D0"/><path d="M20.156 12.624c.278-1.862-1.14-2.863-3.077-3.53l.628-2.522-1.535-.382-.612 2.455a67.34 67.34 0 00-1.23-.29l.617-2.471-1.534-.383-.63 2.521a51.235 51.235 0 01-.98-.23l.002-.008-2.116-.529-.409 1.64s1.14.26 1.115.277c.622.155.734.567.715.893l-.716 2.873c.043.01.099.026.16.05l-.162-.04-1.004 4.025c-.076.189-.27.472-.704.364.016.023-1.115-.278-1.115-.278l-.762 1.757 1.997.498c.372.093.736.19 1.094.282l-.635 2.55 1.533.383.63-2.523c.418.114.825.218 1.223.317l-.627 2.512 1.535.383.635-2.546c2.617.495 4.586.295 5.414-2.072.668-1.906-.033-3.006-1.41-3.723 1.003-.23 1.758-.89 1.96-2.253zm-3.508 4.917c-.474 1.907-3.683.876-4.724.618l.843-3.38c1.04.26 4.377.775 3.881 2.762zm.475-4.945c-.433 1.734-3.104.853-3.97.637l.764-3.065c.867.216 3.657.62 3.206 2.428z" fill="#fff"/><path d="M40.996 9.091c1.135 0 2.115.203 2.939.603a5.93 5.93 0 012.058 1.628 6.86 6.86 0 011.202 2.409 11 11 0 01.388 2.974c0 1.63-.3 3.17-.902 4.62-.603 1.454-1.42 2.715-2.461 3.79a11.574 11.574 0 01-3.683 2.547c-1.414.626-2.95.94-4.6.94-.213 0-.589-.007-1.118-.018-.53-.01-1.14-.065-1.821-.157a21.367 21.367 0 01-2.179-.428 10.926 10.926 0 01-2.178-.778l6.126-25.74 5.486-.85-2.193 9.134c.47-.212.942-.376 1.414-.495a6.27 6.27 0 011.522-.179zM36.394 24.25c.826 0 1.605-.203 2.336-.603a6.15 6.15 0 001.897-1.61c.53-.676.95-1.436 1.256-2.285a7.79 7.79 0 00.461-2.658c0-1.133-.19-2.016-.566-2.655-.378-.636-1.076-.956-2.09-.956-.332 0-.76.063-1.29.176-.533.12-1.01.37-1.437.746l-2.335 9.7c.14.025.265.049.371.07.104.025.22.042.334.054.121.013.26.02.427.02h.636zm16.88 3.859h-5.24l4.425-18.623h5.276l-4.461 18.623zm2.55-20.892a3.251 3.251 0 01-1.983-.654c-.593-.434-.887-1.101-.887-2.001 0-.495.1-.96.3-1.397.202-.438.467-.814.798-1.134a3.921 3.921 0 011.15-.762 3.511 3.511 0 011.4-.282c.731 0 1.391.218 1.982.654.588.439.884 1.106.884 2.001 0 .497-.1.963-.301 1.4-.2.437-.464.814-.796 1.134a3.87 3.87 0 01-1.15.76 3.452 3.452 0 01-1.397.28zm6.504-2.371l5.49-.85-1.349 5.489h5.879l-1.062 4.318h-5.843l-1.556 6.514a7.372 7.372 0 00-.248 1.522c-.026.473.034.88.176 1.222.14.343.394.608.761.795.366.19.889.286 1.575.286a8.43 8.43 0 001.649-.16c.53-.105 1.066-.251 1.609-.442l.39 4.037c-.708.26-1.474.483-2.3.671-.828.191-1.808.283-2.94.283-1.628 0-2.89-.242-3.79-.723-.898-.485-1.533-1.147-1.913-1.986-.374-.835-.542-1.799-.495-2.884a18.8 18.8 0 01.495-3.435l3.472-14.657zm9.789 15.826c0-1.604.26-3.117.779-4.533a11.153 11.153 0 012.233-3.72c.964-1.059 2.14-1.897 3.524-2.513 1.377-.612 2.919-.92 4.618-.92 1.064 0 2.014.1 2.85.302.84.203 1.598.466 2.285.796L86.6 14.193c-.472-.191-.962-.36-1.469-.513-.507-.156-1.126-.232-1.858-.232-1.75 0-3.133.603-4.162 1.805-1.025 1.203-1.541 2.822-1.541 4.852 0 1.204.26 2.177.78 2.922.52.744 1.477 1.115 2.868 1.115.686 0 1.349-.072 1.983-.212a9.767 9.767 0 001.7-.53l.392 4.212a18.93 18.93 0 01-2.196.693c-.803.196-1.76.298-2.869.298-1.464 0-2.704-.215-3.717-.637-1.015-.428-1.853-.997-2.513-1.717a6.473 6.473 0 01-1.435-2.534 10.395 10.395 0 01-.445-3.043zm23.28 7.931c-1.25 0-2.337-.191-3.259-.568-.919-.378-1.68-.907-2.282-1.593-.603-.683-1.054-1.492-1.363-2.425-.31-.932-.458-1.964-.458-3.095 0-1.419.228-2.837.688-4.251a12.037 12.037 0 012.038-3.823 10.882 10.882 0 013.29-2.783c1.296-.718 2.786-1.08 4.46-1.08 1.228 0 2.308.192 3.243.57.929.375 1.695.91 2.301 1.592a6.914 6.914 0 011.36 2.426c.308.93.46 1.965.46 3.097 0 1.414-.224 2.833-.67 4.251a12.295 12.295 0 01-1.983 3.823 10.397 10.397 0 01-3.275 2.778c-1.309.72-2.827 1.08-4.55 1.08zm2.62-15.154c-.778 0-1.465.226-2.053.671a5.786 5.786 0 00-1.485 1.7 8.397 8.397 0 00-.906 2.25c-.2.814-.3 1.585-.3 2.317 0 1.182.192 2.102.566 2.765.38.659 1.063.99 2.055.99.78 0 1.462-.224 2.054-.674a5.813 5.813 0 001.486-1.699 8.405 8.405 0 00.905-2.248 9.825 9.825 0 00.299-2.32c0-1.178-.189-2.1-.568-2.762-.377-.659-1.063-.99-2.054-.99zm13.568 14.66h-5.245l4.425-18.623h5.279l-4.459 18.623zm2.546-20.892a3.244 3.244 0 01-1.981-.654c-.591-.434-.887-1.101-.887-2.001 0-.495.102-.96.302-1.397.199-.438.466-.814.797-1.134a3.906 3.906 0 011.151-.762 3.483 3.483 0 011.396-.282c.733 0 1.395.218 1.984.654.59.439.888 1.106.888 2.001 0 .497-.106.963-.304 1.4a3.677 3.677 0 01-.795 1.134c-.332.317-.714.57-1.149.76a3.467 3.467 0 01-1.402.28zm5.691 3.115c.398-.116.842-.256 1.325-.408a19.553 19.553 0 013.648-.742 22.677 22.677 0 012.53-.126c2.764 0 4.669.805 5.721 2.41 1.051 1.605 1.233 3.802.551 6.586l-2.411 10.055h-5.275l2.336-9.844c.143-.615.255-1.209.337-1.79.084-.575.079-1.082-.019-1.52a1.82 1.82 0 00-.653-1.064c-.346-.271-.868-.407-1.577-.407-.683 0-1.378.074-2.088.215l-3.435 14.41h-5.277l4.287-17.774z" fill="#D0D0D0"/></g></svg>