<svg width="15" height="16" fill="none" xmlns="http://www.w3.org/2000/svg"><g clip-path="url(#clip0_143_334)" fill="#D0D0D0"><path d="M3.491 5.147H.481c-.134 0-.243.116-.243.258v10.32c0 .142.109.257.242.257h3.011c.134 0 .242-.115.242-.258V5.405c0-.142-.108-.258-.242-.258zM1.987.018C.891.018 0 .968 0 2.135c0 1.168.891 2.118 1.987 2.118 1.095 0 1.986-.95 1.986-2.118S3.082.018 1.987.018zM11.15 4.89c-1.21 0-2.103.555-2.646 1.186v-.67c0-.143-.108-.259-.242-.259H5.38c-.134 0-.242.116-.242.258v10.32c0 .142.108.257.242.257h3.004c.134 0 .242-.115.242-.258V10.62c0-1.72.438-2.39 1.563-2.39 1.224 0 1.321 1.074 1.321 2.478v5.017c0 .143.109.258.242.258h3.006c.134 0 .242-.115.242-.258v-5.66c0-2.558-.457-5.173-3.849-5.173z"/></g><defs><clipPath id="clip0_143_334"><path fill="#fff" d="M0 0h15v16H0z"/></clipPath></defs></svg>