<svg width="221" height="39" fill="none" xmlns="http://www.w3.org/2000/svg"><path d="M84.522 27l-5.038-15.4h3.696l4.378 13.64H85.71l4.576-13.64h3.3l4.4 13.64h-1.782l4.488-13.64h3.41L99.064 27h-3.828l-3.894-11.968h1.012L88.35 27h-3.828zm32.13-15.4h3.564V27h-3.564V11.6zM109.656 27h-3.564V11.6h3.564V27zm7.26-6.314h-7.524v-3.014h7.524v3.014zM123.859 27V11.6h3.564V27h-3.564zm10.409 0V14.504h-4.928V11.6h13.42v2.904h-4.928V27h-3.564zm13.688-9.196h7.414v2.772h-7.414v-2.772zm.264 6.336h8.382V27h-11.924V11.6h11.638v2.86h-8.096v9.68z" fill="#D0D0D0"/><path d="M159.437 27V11.6h3.564v12.496h7.722V27h-11.286zm16.556-9.196h7.414v2.772h-7.414v-2.772zm.264 6.336h8.382V27h-11.924V11.6h11.638v2.86h-8.096v9.68zM185.45 27l6.864-15.4h3.52L202.72 27h-3.74l-5.632-13.596h1.408L189.102 27h-3.652zm3.432-3.3l.946-2.706h7.92l.968 2.706h-9.834zm15.436 3.3V11.6h6.996c1.672 0 3.146.323 4.422.968 1.276.63 2.274 1.518 2.992 2.662.719 1.144 1.078 2.5 1.078 4.07 0 1.555-.359 2.911-1.078 4.07-.718 1.144-1.716 2.039-2.992 2.684-1.276.63-2.75.946-4.422.946h-6.996zm3.564-2.926h3.256c1.027 0 1.914-.19 2.662-.572a4.207 4.207 0 001.76-1.672c.426-.719.638-1.562.638-2.53 0-.983-.212-1.826-.638-2.53a4.07 4.07 0 00-1.76-1.65c-.748-.396-1.635-.594-2.662-.594h-3.256v9.548z" fill="url(#paint0_radial_203_2)"/><path d="M0 38.175V12.413h12.647V26.23l7.026-3.278v4.45L0 38.174z" fill="#2EADF4"/><path d="M21.781 38.175V5.855h12.647V26.23l7.026-3.278v4.45L21.781 38.174z" fill="#2E95F4"/><path d="M43.328 38.175V0h12.647v26.23l7.026-3.278v4.45L43.328 38.174z" fill="#2E79F4"/><defs><radialGradient id="paint0_radial_203_2" cx="0" cy="0" r="1" gradientUnits="userSpaceOnUse" gradientTransform="matrix(52.42442 20.25003 -75.77723 196.17636 165.273 12.75)"><stop stop-color="#54BDF5"/><stop offset="1" stop-color="#398BE9"/></radialGradient></defs></svg>