<svg width="14" height="15" fill="none" xmlns="http://www.w3.org/2000/svg"><path d="M13.597 9.092a7.46 7.46 0 00.155-1.513c0-3.896-2.99-7.054-6.678-7.054-.389 0-.77.035-1.141.103A3.702 3.702 0 003.873 0C1.732 0 0 1.832 0 4.09c0 .756.194 1.463.532 2.07a7.473 7.473 0 00-.135 1.42c0 3.896 2.99 7.054 6.677 7.054.418 0 .827-.041 1.223-.118a3.699 3.699 0 001.83.485C12.268 15 14 13.168 14 10.91a4.26 4.26 0 00-.403-1.818zM10.5 10.95c-.309.462-.765.828-1.357 1.087-.585.257-1.287.388-2.086.388-.96 0-1.763-.178-2.39-.53a3.197 3.197 0 01-1.1-1.03c-.284-.433-.428-.862-.428-1.275 0-.259.094-.483.279-.666a.952.952 0 01.697-.274c.23 0 .427.073.588.216.154.138.285.341.391.604.119.287.248.528.384.719.131.183.32.337.56.457.242.121.568.182.97.182.552 0 1.004-.124 1.345-.37.332-.24.494-.527.494-.88 0-.278-.084-.497-.258-.669a1.8 1.8 0 00-.712-.415 13.11 13.11 0 00-1.225-.32c-.69-.157-1.278-.342-1.745-.551a2.9 2.9 0 01-1.152-.89c-.287-.379-.432-.854-.432-1.413 0-.533.152-1.014.453-1.428.299-.411.735-.731 1.296-.95.554-.217 1.213-.327 1.96-.327.596 0 1.12.073 1.557.217.44.144.812.34 1.103.58a2.5 2.5 0 01.65.772c.138.272.208.542.208.804a.989.989 0 01-.274.681.894.894 0 01-.685.303c-.248 0-.441-.064-.576-.19-.125-.116-.254-.298-.398-.56a2.307 2.307 0 00-.6-.783c-.224-.18-.599-.272-1.114-.272-.479 0-.868.101-1.157.302-.279.192-.414.414-.414.676 0 .16.044.295.133.41.095.123.229.23.398.32a2.9 2.9 0 00.538.22c.185.054.497.135.924.24a15.79 15.79 0 011.476.407c.444.15.829.336 1.142.551.32.22.573.503.753.84.18.339.271.757.271 1.243 0 .58-.157 1.11-.467 1.574z" fill="#D0D0D0"/></svg>