<svg width="74" height="74" fill="none" xmlns="http://www.w3.org/2000/svg"><circle cx="39" cy="23.508" r="23" fill="#50B6F3"/><g filter="url(#filter0_b_143_553)"><path d="M70.91 27.508c2.988 0 4.23 3.818 1.813 5.572L55.39 45.661a3.079 3.079 0 00-1.12 3.444l6.62 20.357c.923 2.838-2.328 5.197-4.744 3.444L38.812 60.325a3.086 3.086 0 00-3.624 0l-17.334 12.58c-2.416 1.754-5.667-.605-4.744-3.443l6.62-20.357a3.079 3.079 0 00-1.12-3.444L1.277 33.081c-2.417-1.755-1.175-5.573 1.812-5.573h67.822z" fill="#fff" fill-opacity=".22"/></g><defs><filter id="filter0_b_143_553" x="-15" y="12.508" width="104" height="76" filterUnits="userSpaceOnUse" color-interpolation-filters="sRGB"><feFlood flood-opacity="0" result="BackgroundImageFix"/><feGaussianBlur in="BackgroundImageFix" stdDeviation="7.5"/><feComposite in2="SourceAlpha" operator="in" result="effect1_backgroundBlur_143_553"/><feBlend in="SourceGraphic" in2="effect1_backgroundBlur_143_553" result="shape"/></filter></defs></svg>