<svg width="95" height="92" fill="none" xmlns="http://www.w3.org/2000/svg"><rect x="57.11" y="27.206" width="12.03" height="40.401" rx="6.015" transform="rotate(45 57.11 27.206)" fill="#50B6F3"/><rect x="22.733" y="21.193" width="3.342" height="16.708" rx="1.671" transform="rotate(-45 22.733 21.193)" fill="#50B6F3"/><rect x="36.897" y="17.695" width="3.342" height="9.356" rx="1.671" fill="#50B6F3"/><rect width="3.342" height="9.356" rx="1.671" transform="matrix(0 1 1 0 21.703 32.888)" fill="#50B6F3"/><rect width="3.342" height="16.708" rx="1.671" transform="scale(1 -1) rotate(45 120.808 48.906)" fill="#50B6F3"/><rect width="3.342" height="9.356" rx="1.671" transform="matrix(0 -1 -1 0 73.464 56.94)" fill="#50B6F3"/><rect x="58.273" y="72.132" width="3.342" height="9.356" rx="1.671" transform="rotate(180 58.273 72.132)" fill="#50B6F3"/><g filter="url(#filter0_b_143_561)"><rect x="31.584" y="43.983" width="22.757" height="30.666" rx="11.378" transform="rotate(45 31.584 43.983)" stroke="#fff" stroke-opacity=".22" stroke-width="14"/></g><g filter="url(#filter1_b_143_561)"><rect x="69.009" y="9.899" width="22.757" height="30.666" rx="11.378" transform="rotate(45 69.009 9.9)" stroke="#fff" stroke-opacity=".22" stroke-width="14"/></g><defs><filter id="filter0_b_143_561" x="3.612" y="37.696" width="50.35" height="50.35" filterUnits="userSpaceOnUse" color-interpolation-filters="sRGB"><feFlood flood-opacity="0" result="BackgroundImageFix"/><feGaussianBlur in="BackgroundImageFix" stdDeviation="2"/><feComposite in2="SourceAlpha" operator="in" result="effect1_backgroundBlur_143_561"/><feBlend in="SourceGraphic" in2="effect1_backgroundBlur_143_561" result="shape"/></filter><filter id="filter1_b_143_561" x="41.037" y="3.613" width="50.35" height="50.35" filterUnits="userSpaceOnUse" color-interpolation-filters="sRGB"><feFlood flood-opacity="0" result="BackgroundImageFix"/><feGaussianBlur in="BackgroundImageFix" stdDeviation="2"/><feComposite in2="SourceAlpha" operator="in" result="effect1_backgroundBlur_143_561"/><feBlend in="SourceGraphic" in2="effect1_backgroundBlur_143_561" result="shape"/></filter></defs></svg>