<svg width="14" height="12" fill="none" xmlns="http://www.w3.org/2000/svg"><path fill-rule="evenodd" clip-rule="evenodd" d="M10.724 11.867a.678.678 0 001.068-.417C12.299 9 13.529 2.799 13.99.57a.476.476 0 00-.152-.455.457.457 0 00-.465-.084C10.928.961 3.395 3.868.316 5.04A.496.496 0 000 5.52a.495.495 0 00.346.458c1.38.425 3.193 1.016 3.193 1.016s.847 2.63 1.289 3.969a.495.495 0 00.825.221L7.459 9.43s2.083 1.572 3.265 2.438zM4.302 6.661l.979 3.323.218-2.104 5.94-5.512a.17.17 0 00.02-.226.163.163 0 00-.22-.038L4.303 6.66z" fill="#D0D0D0"/></svg>