<svg width="16" height="14" fill="none" xmlns="http://www.w3.org/2000/svg"><g clip-path="url(#clip0_143_342)"><path d="M14.32 3.52c.009.149.009.298.009.448 0 4.58-3.277 9.861-9.27 9.861v-.003a8.825 8.825 0 01-4.995-1.553c.258.033.517.049.776.05a6.297 6.297 0 004.046-1.487c-1.394-.028-2.616-.995-3.043-2.406.488.1.991.08 1.47-.06C1.793 8.043.7 6.623.7 4.973v-.044c.453.268.96.417 1.479.434C.747 4.345.306 2.319 1.17.735 2.824 2.9 5.265 4.216 7.885 4.355c-.262-1.203.096-2.464.943-3.31 1.312-1.313 3.376-1.245 4.61.15a6.306 6.306 0 002.068-.842 3.45 3.45 0 01-1.432 1.917 6.18 6.18 0 001.871-.545A6.87 6.87 0 0114.32 3.52z" fill="#D0D0D0"/></g><defs><clipPath id="clip0_143_342"><path fill="#fff" d="M0 0h16v14H0z"/></clipPath></defs></svg>